<?xml version="1.0" encoding="iso-8859-1"?>
<!-- Generator: Adobe Illustrator 26.0.1, SVG Export Plug-In . SVG Version: 6.00 Build 0)  -->
<svg version="1.1" id="Layer_1" xmlns="http://www.w3.org/2000/svg" xmlns:xlink="http://www.w3.org/1999/xlink" x="0px" y="0px"
	 viewBox="0 0 1000 1000" style="enable-background:new 0 0 1000 1000;" xml:space="preserve">
<g id="watermark_1_">
	<g>
		<g id="watermark" style="opacity:0.61;">
			<g>
				<g>
					<g>
						<g>
							<polygon style="fill:#FFFFFF;" points="421.112,924.528 409.007,952.493 402.615,952.493 390.55,924.528 397.541,924.528 
								406.051,944.503 414.68,924.528 							"/>
						</g>
						<g>
							<path style="fill:#FFFFFF;" d="M442.323,943.185h-16.26c0.599,2.677,2.876,4.315,6.153,4.315
								c2.277,0,3.915-0.679,5.393-2.077l3.316,3.595c-1.997,2.278-4.994,3.476-8.868,3.476c-7.431,0-12.265-4.674-12.265-11.067
								c0-6.432,4.914-11.066,11.466-11.066c6.312,0,11.186,4.235,11.186,11.146C442.443,941.987,442.363,942.666,442.323,943.185
								 M425.983,939.55h10.587c-0.44-2.717-2.478-4.475-5.274-4.475C428.46,935.075,426.422,936.793,425.983,939.55"/>
						</g>
						<g>
							<path style="fill:#FFFFFF;" d="M444.997,941.427c0-6.471,4.994-11.066,11.985-11.066c4.514,0,8.07,1.958,9.628,5.473
								l-4.834,2.597c-1.159-2.038-2.877-2.956-4.834-2.956c-3.156,0-5.633,2.198-5.633,5.952c0,3.756,2.477,5.953,5.633,5.953
								c1.958,0,3.675-0.879,4.834-2.956l4.834,2.637c-1.558,3.436-5.114,5.433-9.628,5.433
								C449.991,952.493,444.997,947.899,444.997,941.427"/>
						</g>
						<g>
							<path style="fill:#FFFFFF;" d="M484.386,951.135c-1.279,0.919-3.157,1.358-5.074,1.358c-5.073,0-8.03-2.597-8.03-7.711
								v-8.829h-3.316v-4.794h3.316v-5.233h6.232v5.233h5.353v4.794h-5.353v8.749c0,1.837,0.998,2.836,2.677,2.836
								c0.918,0,1.837-0.279,2.517-0.799L484.386,951.135z"/>
						</g>
					</g>
					<g>
						<path style="fill:#FFFFFF;" d="M527.157,930.68v5.753c-0.519-0.04-0.918-0.08-1.398-0.08c-3.435,0-5.713,1.877-5.713,5.993
							v10.147h-6.232V931h5.953v2.836C521.284,931.759,523.841,930.68,527.157,930.68"/>
					</g>
					<g>
						<path style="fill:#FFFFFF;" d="M528.954,949.257l2.197-4.874c2.357,1.718,5.873,2.916,9.229,2.916
							c3.836,0,5.393-1.278,5.393-2.996c0-5.233-16.26-1.638-16.26-12.025c0-4.754,3.835-8.709,11.785-8.709
							c3.516,0,7.112,0.839,9.708,2.477l-1.998,4.914c-2.597-1.478-5.273-2.197-7.75-2.197c-3.835,0-5.313,1.438-5.313,3.196
							c0,5.154,16.259,1.598,16.259,11.865c0,4.675-3.875,8.67-11.865,8.67C535.905,952.493,531.43,951.175,528.954,949.257"/>
					</g>
					<g>
						<path style="fill:#FFFFFF;" d="M577.131,943.185h-16.26c0.599,2.677,2.876,4.315,6.153,4.315c2.277,0,3.915-0.679,5.393-2.077
							l3.316,3.595c-1.998,2.278-4.994,3.476-8.869,3.476c-7.431,0-12.265-4.674-12.265-11.067c0-6.432,4.914-11.066,11.466-11.066
							c6.312,0,11.187,4.235,11.187,11.146C577.251,941.987,577.171,942.666,577.131,943.185 M560.791,939.55h10.587
							c-0.439-2.717-2.477-4.475-5.273-4.475C563.268,935.075,561.231,936.793,560.791,939.55"/>
					</g>
					<g>
						<path style="fill:#FFFFFF;" d="M602.337,943.185h-16.26c0.599,2.677,2.876,4.315,6.152,4.315c2.277,0,3.915-0.679,5.393-2.077
							l3.316,3.595c-1.998,2.278-4.994,3.476-8.869,3.476c-7.431,0-12.265-4.674-12.265-11.067c0-6.432,4.914-11.066,11.466-11.066
							c6.312,0,11.186,4.235,11.186,11.146C602.457,941.987,602.377,942.666,602.337,943.185 M585.997,939.55h10.587
							c-0.439-2.717-2.477-4.475-5.273-4.475C588.474,935.075,586.437,936.793,585.997,939.55"/>
					</g>
					<g>
						<polygon style="fill:#FFFFFF;" points="615.838,944.064 612.841,947.02 612.841,952.493 606.61,952.493 606.61,922.85 
							612.841,922.85 612.841,939.629 621.95,931 629.381,931 620.432,940.108 630.18,952.493 622.63,952.493 						"/>
					</g>
					<g>
						<path style="fill:#FFFFFF;" d="M514.371,955.416L514.371,955.416l-6.226-6.226c-0.947,1.107-2.075,2.054-3.339,2.796
							c-0.201,0.15-0.406,0.296-0.616,0.433l6.589,6.589c0.992,0.992,2.601,0.992,3.592,0
							C515.363,958.017,515.363,956.408,514.371,955.416"/>
					</g>
					<g>
						<path style="fill:#FFFFFF;" d="M499.965,929.04c0.48-0.377,1.077-0.612,1.735-0.612c0.091,0,0.181,0.005,0.27,0.013
							c-0.466-0.34-1.041-0.542-1.663-0.542c-0.859,0-1.619,0.392-2.137,0.998c-0.111,0-0.218,0.013-0.328,0.016
							c0.086-0.167,0.139-0.354,0.139-0.555c0-0.509-0.311-0.945-0.752-1.13c0.19,0.275,0.301,0.608,0.301,0.968
							c0,0.267-0.066,0.517-0.176,0.742c-6.119,0.437-10.95,5.527-10.95,11.757c0,6.516,5.283,11.799,11.799,11.799
							c6.517,0,11.8-5.283,11.8-11.799C510.004,934.777,505.644,929.892,499.965,929.04 M495.61,932.114
							c0.947,0,1.837,0.244,2.611,0.674c0.813-0.532,1.785-0.842,2.828-0.842c1.547,0,2.934,0.68,3.883,1.756
							c-0.948-0.826-2.186-1.328-3.541-1.328c-0.977,0-1.895,0.261-2.686,0.716c-0.172,0.1-0.34,0.208-0.499,0.326
							c-0.142-0.104-0.29-0.203-0.444-0.292c-0.803-0.476-1.741-0.749-2.743-0.749c-0.653,0-1.279,0.117-1.86,0.331
							C493.895,932.328,494.727,932.114,495.61,932.114 M503.858,941.785c0.25,0.664,0.394,1.38,0.394,2.131
							c0,3.34-2.707,6.047-6.047,6.047c-3.339,0-6.047-2.707-6.047-6.047c0-0.751,0.143-1.467,0.394-2.131
							c-1.35-0.831-2.253-2.317-2.253-4.019c0-2.607,2.114-4.72,4.72-4.72c1.23,0,2.346,0.474,3.186,1.244
							c0.84-0.77,1.956-1.244,3.186-1.244c2.607,0,4.72,2.113,4.72,4.72C506.111,939.467,505.208,940.954,503.858,941.785"/>
					</g>
					<g>
						<path style="fill:#FFFFFF;" d="M503.627,937.351c0,1.082-0.879,1.961-1.961,1.961c-1.082,0-1.961-0.879-1.961-1.961
							s0.879-1.961,1.961-1.961c0.22,0,0.428,0.037,0.625,0.102c-0.065,0.135-0.099,0.287-0.099,0.445
							c0,0.595,0.482,1.076,1.077,1.076c0.11,0,0.217-0.017,0.318-0.048C503.613,937.089,503.627,937.218,503.627,937.351"/>
					</g>
					<g>
						<path style="fill:#FFFFFF;" d="M496.201,937.351c0,0.818-0.665,1.482-1.483,1.482c-0.818,0-1.483-0.664-1.483-1.482
							s0.665-1.483,1.483-1.483c0.166,0,0.324,0.027,0.473,0.077c-0.049,0.102-0.075,0.217-0.075,0.337
							c0,0.449,0.364,0.814,0.814,0.814c0.083,0,0.164-0.013,0.241-0.036C496.191,937.153,496.201,937.251,496.201,937.351"/>
					</g>
					<g>
						<g>
							<g>
								<rect x="484.56" y="939.024" style="fill:#FFFFFF;" width="1.34" height="1.34"/>
							</g>
							<g>
								<rect x="510.51" y="939.024" style="fill:#FFFFFF;" width="1.34" height="1.34"/>
							</g>
							<g>
								<path style="fill:#FFFFFF;" d="M511.332,939.572h-0.304c0-7.07-5.752-12.823-12.823-12.823
									c-7.07,0-12.823,5.753-12.823,12.823h-0.305c0-3.506,1.365-6.803,3.845-9.282c2.479-2.48,5.776-3.845,9.282-3.845
									c3.507,0,6.803,1.365,9.283,3.845C509.966,932.769,511.332,936.065,511.332,939.572"/>
							</g>
						</g>
						<g>
							<rect x="497.534" y="925.927" style="fill:#FFFFFF;" width="1.34" height="1.34"/>
						</g>
						<g>
							<rect x="489.006" y="926.445" style="fill:#FFFFFF;" width="18.397" height="0.304"/>
						</g>
						<g>
							<path style="fill:#FFFFFF;" d="M489.494,926.658c0,0.235-0.191,0.427-0.427,0.427c-0.235,0-0.426-0.191-0.426-0.427
								s0.191-0.427,0.426-0.427C489.303,926.231,489.494,926.422,489.494,926.658"/>
						</g>
						<g>
							<path style="fill:#FFFFFF;" d="M507.829,926.658c0,0.235-0.191,0.427-0.427,0.427c-0.235,0-0.426-0.191-0.426-0.427
								s0.191-0.427,0.426-0.427C507.639,926.231,507.829,926.422,507.829,926.658"/>
						</g>
					</g>
				</g>
				<g>
					<path style="fill:#FFFFFF;" d="M640.109,951.171c0,3.395-5.146,3.395-5.146,0C634.963,947.779,640.109,947.779,640.109,951.171
						z"/>
				</g>
				<g>
					<g>
						<g>
							<path style="fill:#FFFFFF;" d="M307.849,936.236l3.859,13.253l4.038-13.253h4.823l-6.145,17.721h-5.073l-1.822-5.216
								l-1.572-5.896l-1.571,5.896l-1.822,5.216h-5.073l-6.18-17.721h4.858l4.038,13.253l3.822-13.253H307.849z"/>
						</g>
						<g>
							<path style="fill:#FFFFFF;" d="M340.449,936.236l3.859,13.253l4.038-13.253h4.823l-6.145,17.721h-5.073l-1.822-5.216
								l-1.571-5.896l-1.572,5.896l-1.822,5.216h-5.073l-6.18-17.721h4.858l4.038,13.253l3.822-13.253H340.449z"/>
						</g>
						<g>
							<path style="fill:#FFFFFF;" d="M373.048,936.236l3.859,13.253l4.038-13.253h4.823l-6.145,17.721h-5.073l-1.822-5.216
								l-1.572-5.896l-1.571,5.896l-1.822,5.216h-5.073l-6.18-17.721h4.858l4.038,13.253l3.822-13.253H373.048z"/>
						</g>
					</g>
					<g>
						<path style="fill:#FFFFFF;" d="M393.123,951.412c0,3.395-5.146,3.395-5.146,0C387.977,948.02,393.123,948.02,393.123,951.412z
							"/>
					</g>
					<g>
						<path style="fill:#FFFFFF;" d="M658.296,951.171c-2.036,2.001-4.177,2.787-6.787,2.787c-5.108,0-9.361-3.072-9.361-9.323
							c0-6.251,4.253-9.326,9.361-9.326c2.502,0,4.43,0.716,6.359,2.609l-2.752,2.894c-1.036-0.931-2.321-1.393-3.534-1.393
							c-2.929,0-5.073,2.144-5.073,5.216c0,3.357,2.286,5.143,5,5.143c1.393,0,2.787-0.393,3.857-1.463L658.296,951.171z"/>
					</g>
					<g>
						<path style="fill:#FFFFFF;" d="M678.097,944.777c0,5.073-3.465,9.181-9.181,9.181c-5.716,0-9.146-4.107-9.146-9.181
							c0-5.038,3.502-9.181,9.111-9.181S678.097,939.739,678.097,944.777z M664.128,944.777c0,2.679,1.609,5.181,4.788,5.181
							c3.179,0,4.788-2.502,4.788-5.181c0-2.644-1.859-5.216-4.788-5.216C665.772,939.561,664.128,942.133,664.128,944.777z"/>
					</g>
					<g>
						<path style="fill:#FFFFFF;" d="M692.828,953.958v-9.431c0-2.324-1.216-4.43-3.61-4.43c-2.356,0-3.75,2.106-3.75,4.43v9.431
							h-4.36v-17.649h4.038l0.323,2.144c0.928-1.786,2.964-2.429,4.643-2.429c2.109,0,4.218,0.858,5.216,3.287
							c1.574-2.502,3.61-3.217,5.896-3.217c5,0,7.467,3.075,7.467,8.36v9.504h-4.361v-9.504c0-2.321-0.963-4.288-3.322-4.288
							c-2.356,0-3.822,2.036-3.822,4.36v9.431H692.828z"/>
					</g>
				</g>
			</g>
		</g>
		<g style="opacity:0.61;">
			<g>
				<g>
					<path style="fill:#FFFFFF;" d="M708.973,859.493c-0.013-2.665-2.087-4.618-4.766-4.659c-2.011-0.031-1.81,0.261-1.815-1.887
						c-0.006-2.389-0.015-4.778,0.006-7.166c0.007-0.824-0.243-1.505-0.787-2.125c-5.098-5.81-10.184-11.63-15.281-17.441
						c-0.262-0.299-0.599-0.532-0.901-0.796c-13.528,0-27.055,0-40.583,0c-1.729,0.639-2.482,1.889-2.478,3.72
						c0.021,8.159,0.009,16.318,0.008,24.478c0,1.21-0.007,1.281-1.197,1.201c-3.258-0.221-5.477,2.147-5.436,5.426
						c0.096,7.568,0.028,15.137,0.031,22.706c0.001,3.44,1.887,5.32,5.333,5.331c1.267,0.004,1.268,0.004,1.268,1.306
						c0.001,4.831-0.002,9.662,0.002,14.493c0.002,2.595,1.262,3.855,3.85,3.855c17.446,0.001,34.891,0.001,52.337,0
						c2.543,0,3.822-1.268,3.824-3.799c0.005-4.912,0.001-9.823,0.003-14.735c0-1.115,0.005-1.112,1.131-1.121
						c0.589-0.005,1.177,0.017,1.761-0.127c2.169-0.535,3.68-2.273,3.689-4.503C709.007,875.597,709.011,867.545,708.973,859.493z
						 M647.034,828.716c11.619-0.001,23.237-0.001,34.856,0c1.193,0,1.206,0.015,1.207,1.222c0.001,4.884-0.002,9.767,0.002,14.651
						c0.001,1.765,0.543,2.305,2.307,2.306c4.159,0.003,8.318,0,12.477,0.003c0.997,0.001,1.044,0.046,1.046,1.052
						c0.006,1.932,0.005,3.864,0,5.796c-0.003,1.038-0.051,1.085-1.098,1.085c-8.479,0.002-16.958,0.001-25.438,0.001
						c-8.452,0-16.905,0-25.357,0c-1.198,0-1.202-0.003-1.202-1.221c-0.001-7.889-0.001-15.778,0-23.667
						C645.835,828.724,645.844,828.716,647.034,828.716z M697.728,903.645c-8.454,0.001-16.908,0.001-25.362,0.001
						c-8.427,0-16.854,0.001-25.281,0c-1.245,0-1.249-0.003-1.249-1.262c-0.001-4.348-0.003-8.696,0.001-13.043
						c0.001-1.01,0.051-1.059,1.041-1.059c16.989-0.002,33.977-0.002,50.966,0c1.041,0,1.086,0.044,1.087,1.094
						c0.003,4.348,0.003,8.696,0.001,13.043C698.931,903.634,698.92,903.645,697.728,903.645z"/>
				</g>
				<g>
					<g>
						<rect x="668.546" y="828.478" style="fill:#FFFFFF;" width="3.825" height="2.295"/>
					</g>
					<g>
						<rect x="664.722" y="830.773" style="fill:#FFFFFF;" width="3.825" height="2.295"/>
					</g>
					<g>
						<rect x="668.546" y="833.068" style="fill:#FFFFFF;" width="3.825" height="2.295"/>
					</g>
					<g>
						<rect x="664.722" y="835.363" style="fill:#FFFFFF;" width="3.825" height="2.295"/>
					</g>
					<g>
						<rect x="668.546" y="837.658" style="fill:#FFFFFF;" width="3.825" height="2.295"/>
					</g>
					<g>
						<rect x="664.722" y="839.953" style="fill:#FFFFFF;" width="3.825" height="2.295"/>
					</g>
					<g>
						<rect x="668.546" y="842.247" style="fill:#FFFFFF;" width="3.825" height="2.295"/>
					</g>
					<g>
						<rect x="664.722" y="844.542" style="fill:#FFFFFF;" width="3.825" height="2.295"/>
					</g>
					<g>
						<rect x="668.546" y="846.837" style="fill:#FFFFFF;" width="3.825" height="2.295"/>
					</g>
					<g>
						<rect x="664.722" y="849.132" style="fill:#FFFFFF;" width="3.825" height="2.295"/>
					</g>
					<g>
						<rect x="668.546" y="851.427" style="fill:#FFFFFF;" width="3.825" height="2.295"/>
					</g>
					<g>
						<rect x="664.722" y="853.722" style="fill:#FFFFFF;" width="3.825" height="2.295"/>
					</g>
				</g>
			</g>
			<g>
				<path style="fill:#FFFFFF;" d="M364.231,859.493c-0.013-2.665-2.087-4.618-4.766-4.659c-2.011-0.031-1.81,0.261-1.815-1.887
					c-0.006-2.389-0.015-4.778,0.006-7.166c0.007-0.824-0.243-1.505-0.787-2.125c-5.098-5.81-10.184-11.63-15.281-17.441
					c-0.262-0.299-0.599-0.532-0.901-0.796c-13.528,0-27.055,0-40.583,0c-1.729,0.639-2.482,1.889-2.478,3.72
					c0.021,8.159,0.009,16.318,0.008,24.478c0,1.21-0.007,1.281-1.197,1.201c-3.258-0.221-5.477,2.147-5.436,5.426
					c0.096,7.568,0.028,15.137,0.031,22.706c0.001,3.44,1.887,5.32,5.333,5.331c1.267,0.004,1.268,0.004,1.268,1.306
					c0.001,4.831-0.002,9.662,0.002,14.493c0.002,2.595,1.262,3.855,3.85,3.855c17.446,0.001,34.891,0.001,52.337,0
					c2.543,0,3.822-1.268,3.824-3.799c0.005-4.912,0.001-9.823,0.003-14.735c0-1.115,0.004-1.112,1.131-1.121
					c0.589-0.005,1.177,0.017,1.761-0.127c2.169-0.535,3.68-2.273,3.689-4.503C364.264,875.597,364.269,867.545,364.231,859.493z
					 M302.292,828.716c11.619-0.001,23.237-0.001,34.856,0c1.192,0,1.206,0.015,1.207,1.222c0.001,4.884-0.001,9.767,0.002,14.651
					c0.001,1.765,0.543,2.305,2.307,2.306c4.159,0.003,8.318,0,12.477,0.003c0.997,0.001,1.044,0.046,1.046,1.052
					c0.006,1.932,0.005,3.864,0,5.796c-0.003,1.038-0.051,1.085-1.098,1.085c-8.479,0.002-16.958,0.001-25.438,0.001
					c-8.452,0-16.905,0-25.357,0c-1.198,0-1.202-0.003-1.202-1.221c-0.001-7.889-0.001-15.778,0-23.667
					C301.093,828.724,301.102,828.716,302.292,828.716z M352.985,903.645c-8.454,0.001-16.908,0.001-25.362,0.001
					c-8.427,0-16.854,0.001-25.281,0c-1.245,0-1.249-0.003-1.249-1.262c-0.001-4.348-0.003-8.696,0.001-13.043
					c0.001-1.01,0.051-1.059,1.041-1.059c16.989-0.002,33.977-0.002,50.966,0c1.041,0,1.086,0.044,1.087,1.094
					c0.003,4.348,0.003,8.696,0.001,13.043C354.188,903.634,354.177,903.645,352.985,903.645z"/>
			</g>
			<g>
				<path style="fill:#FFFFFF;" d="M303.581,879.891v-17.193h6.051c0.816,0,1.581,0.132,2.293,0.396
					c0.712,0.264,1.333,0.636,1.861,1.117c0.527,0.48,0.944,1.053,1.248,1.717c0.304,0.665,0.456,1.397,0.456,2.198
					c0,0.816-0.152,1.557-0.456,2.221s-0.721,1.236-1.248,1.717c-0.529,0.48-1.149,0.852-1.861,1.117
					c-0.713,0.264-1.477,0.396-2.293,0.396h-2.809v6.315H303.581z M309.68,870.503c0.848,0,1.489-0.241,1.921-0.721
					c0.432-0.48,0.648-1.032,0.648-1.656c0-0.304-0.052-0.601-0.156-0.889c-0.105-0.288-0.264-0.54-0.48-0.756
					c-0.216-0.217-0.484-0.388-0.805-0.516c-0.32-0.129-0.696-0.193-1.128-0.193h-2.857v4.731H309.68z"/>
				<path style="fill:#FFFFFF;" d="M317.796,862.699h3.77l6.916,11.526h0.191l-0.191-3.314v-8.212h3.217v17.193h-3.409l-7.3-12.174
					h-0.191l0.191,3.314v8.86h-3.193V862.699z"/>
				<path style="fill:#FFFFFF;" d="M343.08,870.454h8.429c0.048,0.193,0.087,0.425,0.12,0.697c0.031,0.272,0.048,0.544,0.048,0.816
					c0,1.104-0.167,2.145-0.504,3.121c-0.336,0.977-0.865,1.849-1.585,2.618c-0.768,0.817-1.69,1.449-2.761,1.897
					c-1.073,0.448-2.298,0.672-3.674,0.672c-1.249,0-2.426-0.224-3.53-0.672c-1.104-0.447-2.065-1.072-2.881-1.873
					c-0.816-0.8-1.465-1.749-1.945-2.845c-0.48-1.097-0.72-2.293-0.72-3.59c0-1.296,0.24-2.493,0.72-3.589s1.129-2.045,1.945-2.845
					c0.816-0.8,1.777-1.425,2.881-1.873c1.104-0.448,2.281-0.672,3.53-0.672c1.392,0,2.637,0.24,3.734,0.72
					c1.097,0.48,2.036,1.144,2.821,1.993l-2.232,2.185c-0.562-0.592-1.185-1.044-1.874-1.357s-1.513-0.468-2.473-0.468
					c-0.786,0-1.53,0.14-2.234,0.421c-0.705,0.28-1.321,0.676-1.85,1.188c-0.527,0.512-0.949,1.133-1.259,1.861
					c-0.312,0.728-0.469,1.541-0.469,2.437c0,0.897,0.157,1.709,0.469,2.438c0.311,0.728,0.735,1.349,1.271,1.861
					c0.536,0.512,1.156,0.909,1.862,1.188c0.704,0.281,1.457,0.421,2.258,0.421c0.911,0,1.684-0.132,2.317-0.396
					c0.632-0.264,1.171-0.604,1.62-1.021c0.321-0.288,0.598-0.652,0.829-1.092s0.412-0.932,0.541-1.477h-5.404V870.454z"/>
			</g>
			<g>
				<path style="fill:#FFFFFF;" d="M443.437,859.493c-0.013-2.665-2.087-4.618-4.766-4.659c-2.011-0.031-1.81,0.261-1.815-1.887
					c-0.006-2.389-0.015-4.778,0.006-7.166c0.007-0.824-0.243-1.505-0.787-2.125c-5.098-5.81-10.184-11.63-15.281-17.441
					c-0.262-0.299-0.599-0.532-0.901-0.796c-13.528,0-27.055,0-40.583,0c-1.729,0.639-2.482,1.889-2.478,3.72
					c0.021,8.159,0.009,16.318,0.008,24.478c0,1.21-0.007,1.281-1.197,1.201c-3.258-0.221-5.477,2.147-5.436,5.426
					c0.096,7.568,0.028,15.137,0.031,22.706c0.001,3.44,1.887,5.32,5.333,5.331c1.267,0.004,1.268,0.004,1.268,1.306
					c0.001,4.831-0.002,9.662,0.002,14.493c0.002,2.595,1.262,3.855,3.85,3.855c17.446,0.001,34.891,0.001,52.337,0
					c2.543,0,3.822-1.268,3.824-3.799c0.005-4.912,0.001-9.823,0.003-14.735c0-1.115,0.004-1.112,1.131-1.121
					c0.589-0.005,1.177,0.017,1.761-0.127c2.169-0.535,3.68-2.273,3.689-4.503C443.47,875.597,443.475,867.545,443.437,859.493z
					 M381.498,828.716c11.619-0.001,23.237-0.001,34.856,0c1.192,0,1.206,0.015,1.207,1.222c0.001,4.884-0.001,9.767,0.002,14.651
					c0.001,1.765,0.543,2.305,2.307,2.306c4.159,0.003,8.318,0,12.477,0.003c0.997,0.001,1.044,0.046,1.046,1.052
					c0.006,1.932,0.005,3.864,0,5.796c-0.003,1.038-0.051,1.085-1.098,1.085c-8.479,0.002-16.958,0.001-25.438,0.001
					c-8.452,0-16.905,0-25.357,0c-1.198,0-1.202-0.003-1.202-1.221c-0.001-7.889-0.001-15.778,0-23.667
					C380.299,828.724,380.308,828.716,381.498,828.716z M432.192,903.645c-8.454,0.001-16.908,0.001-25.362,0.001
					c-8.427,0-16.854,0.001-25.281,0c-1.245,0-1.249-0.003-1.249-1.262c-0.001-4.348-0.002-8.696,0.001-13.043
					c0.001-1.01,0.051-1.059,1.041-1.059c16.989-0.002,33.977-0.002,50.966,0c1.041,0,1.086,0.044,1.087,1.094
					c0.003,4.348,0.003,8.696,0.001,13.043C433.394,903.634,433.384,903.645,432.192,903.645z"/>
			</g>
			<g>
				<path style="fill:#FFFFFF;" d="M402.272,862.699h3.698l6.46,17.193h-3.578l-1.416-4.106h-6.628l-1.417,4.106h-3.578
					L402.272,862.699z M406.379,872.808l-1.537-4.298l-0.625-2.089h-0.192l-0.625,2.089l-1.537,4.298H406.379z"/>
				<path style="fill:#FFFFFF;" d="M415.815,866.541c-0.273,0-0.533-0.052-0.781-0.156c-0.248-0.104-0.465-0.248-0.648-0.432
					c-0.184-0.184-0.328-0.396-0.432-0.636c-0.105-0.241-0.156-0.504-0.156-0.793s0.052-0.552,0.156-0.793
					c0.104-0.24,0.248-0.452,0.432-0.636c0.184-0.184,0.4-0.328,0.648-0.432c0.248-0.104,0.508-0.156,0.781-0.156
					c0.56,0,1.041,0.196,1.441,0.588c0.4,0.393,0.601,0.869,0.601,1.429c0,0.56-0.201,1.037-0.601,1.428
					C416.856,866.345,416.375,866.541,415.815,866.541z M414.255,879.891v-11.766h3.145v11.766H414.255z"/>
			</g>
			<g>
				<path style="fill:#FFFFFF;" d="M524.043,859.493c-0.013-2.665-2.087-4.618-4.766-4.659c-2.011-0.031-1.81,0.261-1.815-1.887
					c-0.006-2.389-0.015-4.778,0.006-7.166c0.007-0.824-0.243-1.505-0.787-2.125c-5.098-5.81-10.184-11.63-15.281-17.441
					c-0.262-0.299-0.599-0.532-0.901-0.796c-13.528,0-27.055,0-40.583,0c-1.729,0.639-2.482,1.889-2.478,3.72
					c0.021,8.159,0.009,16.318,0.008,24.478c0,1.21-0.007,1.281-1.197,1.201c-3.258-0.221-5.477,2.147-5.436,5.426
					c0.096,7.568,0.028,15.137,0.031,22.706c0.001,3.44,1.887,5.32,5.333,5.331c1.267,0.004,1.268,0.004,1.268,1.306
					c0.001,4.831-0.002,9.662,0.002,14.493c0.002,2.595,1.262,3.855,3.85,3.855c17.446,0.001,34.891,0.001,52.337,0
					c2.543,0,3.822-1.268,3.824-3.799c0.005-4.912,0.001-9.823,0.003-14.735c0-1.115,0.004-1.112,1.131-1.121
					c0.589-0.005,1.177,0.017,1.761-0.127c2.169-0.535,3.68-2.273,3.689-4.503C524.076,875.597,524.081,867.545,524.043,859.493z
					 M462.104,828.716c11.619-0.001,23.237-0.001,34.856,0c1.192,0,1.206,0.015,1.207,1.222c0.001,4.884-0.001,9.767,0.002,14.651
					c0.001,1.765,0.543,2.305,2.307,2.306c4.159,0.003,8.318,0,12.477,0.003c0.997,0.001,1.044,0.046,1.046,1.052
					c0.006,1.932,0.005,3.864,0,5.796c-0.003,1.038-0.051,1.085-1.098,1.085c-8.479,0.002-16.958,0.001-25.438,0.001
					c-8.452,0-16.905,0-25.357,0c-1.198,0-1.202-0.003-1.202-1.221c-0.001-7.889-0.001-15.778,0-23.667
					C460.905,828.724,460.914,828.716,462.104,828.716z M512.798,903.645c-8.454,0.001-16.908,0.001-25.362,0.001
					c-8.427,0-16.854,0.001-25.281,0c-1.245,0-1.249-0.003-1.249-1.262c-0.001-4.348-0.002-8.696,0.001-13.043
					c0.001-1.01,0.051-1.059,1.041-1.059c16.989-0.002,33.977-0.002,50.966,0c1.041,0,1.086,0.044,1.087,1.094
					c0.003,4.348,0.003,8.696,0.001,13.043C514,903.634,513.989,903.645,512.798,903.645z"/>
			</g>
			<g>
				<path style="fill:#FFFFFF;" d="M470.308,880.275c-0.737,0-1.441-0.104-2.113-0.312c-0.672-0.208-1.289-0.52-1.849-0.936
					c-0.56-0.416-1.048-0.925-1.464-1.525c-0.417-0.601-0.745-1.301-0.985-2.101l3.049-1.2c0.224,0.864,0.616,1.581,1.177,2.149
					s1.297,0.852,2.209,0.852c0.336,0,0.66-0.044,0.973-0.132c0.312-0.087,0.592-0.216,0.84-0.384
					c0.248-0.168,0.444-0.38,0.589-0.636c0.144-0.256,0.216-0.552,0.216-0.888c0-0.32-0.056-0.608-0.168-0.865
					c-0.112-0.255-0.3-0.495-0.564-0.72c-0.264-0.224-0.609-0.44-1.033-0.648c-0.424-0.208-0.948-0.424-1.572-0.648l-1.056-0.384
					c-0.465-0.16-0.933-0.376-1.405-0.648c-0.472-0.272-0.9-0.6-1.284-0.985c-0.385-0.384-0.701-0.836-0.949-1.357
					c-0.249-0.52-0.372-1.108-0.372-1.765c0-0.672,0.132-1.301,0.396-1.885c0.264-0.584,0.64-1.096,1.129-1.537
					c0.488-0.44,1.072-0.784,1.753-1.032c0.681-0.248,1.437-0.372,2.269-0.372c0.864,0,1.612,0.116,2.245,0.348
					c0.633,0.232,1.168,0.528,1.609,0.888c0.44,0.36,0.796,0.757,1.068,1.188c0.272,0.433,0.472,0.84,0.601,1.225l-2.857,1.2
					c-0.161-0.48-0.453-0.913-0.876-1.297c-0.425-0.384-1.005-0.576-1.741-0.576c-0.704,0-1.289,0.164-1.753,0.492
					c-0.465,0.329-0.697,0.757-0.697,1.285c0,0.512,0.224,0.949,0.672,1.309c0.448,0.36,1.161,0.708,2.137,1.044l1.081,0.36
					c0.688,0.241,1.316,0.517,1.885,0.828c0.568,0.312,1.056,0.684,1.465,1.117c0.408,0.433,0.72,0.925,0.936,1.477
					c0.217,0.552,0.324,1.189,0.324,1.909c0,0.897-0.18,1.669-0.54,2.317c-0.36,0.648-0.82,1.181-1.38,1.597
					c-0.561,0.416-1.193,0.728-1.897,0.936C471.668,880.172,470.98,880.275,470.308,880.275z"/>
				<path style="fill:#FFFFFF;" d="M477.175,862.699h3.506l3.554,10.349l0.625,2.209h0.192l0.672-2.209l3.698-10.349h3.506
					l-6.268,17.193h-3.409L477.175,862.699z"/>
				<path style="fill:#FFFFFF;" d="M502.388,870.454h8.428c0.048,0.193,0.088,0.425,0.12,0.697c0.033,0.272,0.049,0.544,0.049,0.816
					c0,1.104-0.169,2.145-0.505,3.121c-0.336,0.977-0.864,1.849-1.585,2.618c-0.768,0.817-1.688,1.449-2.761,1.897
					c-1.073,0.448-2.298,0.672-3.674,0.672c-1.249,0-2.425-0.224-3.529-0.672c-1.105-0.447-2.066-1.072-2.882-1.873
					c-0.816-0.8-1.465-1.749-1.945-2.845c-0.48-1.097-0.72-2.293-0.72-3.59c0-1.296,0.241-2.493,0.72-3.589
					c0.48-1.097,1.129-2.045,1.945-2.845c0.816-0.8,1.777-1.425,2.882-1.873c1.104-0.448,2.28-0.672,3.529-0.672
					c1.392,0,2.637,0.24,3.734,0.72c1.097,0.48,2.038,1.144,2.822,1.993l-2.234,2.185c-0.56-0.592-1.185-1.044-1.874-1.357
					c-0.687-0.312-1.512-0.468-2.473-0.468c-0.784,0-1.528,0.14-2.234,0.421c-0.704,0.28-1.321,0.676-1.848,1.188
					c-0.528,0.512-0.949,1.133-1.261,1.861c-0.312,0.728-0.468,1.541-0.468,2.437c0,0.897,0.156,1.709,0.468,2.438
					c0.312,0.728,0.737,1.349,1.273,1.861c0.536,0.512,1.156,0.909,1.86,1.188c0.705,0.281,1.457,0.421,2.258,0.421
					c0.913,0,1.685-0.132,2.317-0.396c0.632-0.264,1.173-0.604,1.621-1.021c0.32-0.288,0.596-0.652,0.828-1.092
					c0.233-0.44,0.412-0.932,0.541-1.477h-5.402V870.454z"/>
			</g>
			<g>
				<path style="fill:#FFFFFF;" d="M602.976,859.493c-0.013-2.665-2.087-4.618-4.766-4.659c-2.011-0.031-1.81,0.261-1.815-1.887
					c-0.006-2.389-0.015-4.778,0.006-7.166c0.007-0.824-0.243-1.505-0.787-2.125c-5.098-5.81-10.184-11.63-15.281-17.441
					c-0.262-0.299-0.599-0.532-0.901-0.796c-13.528,0-27.055,0-40.583,0c-1.729,0.639-2.482,1.889-2.478,3.72
					c0.021,8.159,0.009,16.318,0.008,24.478c0,1.21-0.007,1.281-1.197,1.201c-3.258-0.221-5.477,2.147-5.436,5.426
					c0.096,7.568,0.028,15.137,0.031,22.706c0.001,3.44,1.887,5.32,5.333,5.331c1.267,0.004,1.268,0.004,1.268,1.306
					c0.001,4.831-0.002,9.662,0.002,14.493c0.002,2.595,1.262,3.855,3.85,3.855c17.446,0.001,34.891,0.001,52.337,0
					c2.543,0,3.822-1.268,3.824-3.799c0.005-4.912,0.001-9.823,0.003-14.735c0-1.115,0.005-1.112,1.131-1.121
					c0.589-0.005,1.178,0.017,1.761-0.127c2.169-0.535,3.68-2.273,3.689-4.503C603.01,875.597,603.015,867.545,602.976,859.493z
					 M541.037,828.716c11.619-0.001,23.237-0.001,34.856,0c1.193,0,1.206,0.015,1.207,1.222c0.001,4.884-0.002,9.767,0.002,14.651
					c0.001,1.765,0.543,2.305,2.307,2.306c4.159,0.003,8.318,0,12.477,0.003c0.997,0.001,1.044,0.046,1.046,1.052
					c0.006,1.932,0.005,3.864,0,5.796c-0.003,1.038-0.051,1.085-1.098,1.085c-8.479,0.002-16.958,0.001-25.438,0.001
					c-8.452,0-16.905,0-25.357,0c-1.198,0-1.202-0.003-1.202-1.221c-0.001-7.889-0.001-15.778,0-23.667
					C539.838,828.724,539.847,828.716,541.037,828.716z M591.731,903.645c-8.454,0.001-16.908,0.001-25.362,0.001
					c-8.427,0-16.854,0.001-25.281,0c-1.245,0-1.249-0.003-1.249-1.262c-0.001-4.348-0.003-8.696,0.001-13.043
					c0.001-1.01,0.051-1.059,1.041-1.059c16.989-0.002,33.977-0.002,50.966,0c1.041,0,1.086,0.044,1.087,1.094
					c0.003,4.348,0.003,8.696,0.001,13.043C592.934,903.634,592.923,903.645,591.731,903.645z"/>
			</g>
			<g>
				<path style="fill:#FFFFFF;" d="M549.998,865.772v3.986h6.891v3.074h-6.891v3.986h7.659v3.073h-10.901v-17.193h10.901v3.073
					H549.998z"/>
				<path style="fill:#FFFFFF;" d="M560.635,879.891v-17.193h6.051c0.816,0,1.581,0.132,2.293,0.396
					c0.712,0.264,1.333,0.636,1.861,1.117c0.528,0.48,0.944,1.053,1.249,1.717c0.304,0.665,0.456,1.397,0.456,2.198
					c0,0.816-0.152,1.557-0.456,2.221c-0.305,0.664-0.721,1.236-1.249,1.717c-0.528,0.48-1.149,0.852-1.861,1.117
					c-0.713,0.264-1.477,0.396-2.293,0.396h-2.809v6.315H560.635z M566.735,870.503c0.848,0,1.489-0.241,1.921-0.721
					c0.432-0.48,0.648-1.032,0.648-1.656c0-0.304-0.052-0.601-0.156-0.889c-0.105-0.288-0.264-0.54-0.48-0.756
					c-0.216-0.217-0.484-0.388-0.805-0.516c-0.32-0.129-0.696-0.193-1.128-0.193h-2.857v4.731H566.735z"/>
				<path style="fill:#FFFFFF;" d="M580.109,880.275c-0.737,0-1.441-0.104-2.113-0.312c-0.672-0.208-1.289-0.52-1.849-0.936
					c-0.56-0.416-1.049-0.925-1.465-1.525c-0.416-0.601-0.744-1.301-0.985-2.101l3.049-1.2c0.224,0.864,0.616,1.581,1.177,2.149
					c0.56,0.568,1.296,0.852,2.209,0.852c0.336,0,0.66-0.044,0.973-0.132c0.312-0.087,0.592-0.216,0.84-0.384
					c0.248-0.168,0.444-0.38,0.588-0.636c0.144-0.256,0.217-0.552,0.217-0.888c0-0.32-0.057-0.608-0.168-0.865
					c-0.112-0.255-0.3-0.495-0.565-0.72c-0.264-0.224-0.608-0.44-1.032-0.648c-0.424-0.208-0.949-0.424-1.573-0.648l-1.056-0.384
					c-0.465-0.16-0.932-0.376-1.404-0.648c-0.473-0.272-0.901-0.6-1.285-0.985c-0.384-0.384-0.701-0.836-0.949-1.357
					c-0.248-0.52-0.372-1.108-0.372-1.765c0-0.672,0.132-1.301,0.396-1.885c0.264-0.584,0.64-1.096,1.129-1.537
					c0.489-0.44,1.073-0.784,1.753-1.032c0.68-0.248,1.437-0.372,2.269-0.372c0.865,0,1.613,0.116,2.246,0.348
					c0.632,0.232,1.168,0.528,1.609,0.888c0.44,0.36,0.796,0.757,1.068,1.188c0.272,0.433,0.472,0.84,0.601,1.225l-2.857,1.2
					c-0.161-0.48-0.453-0.913-0.877-1.297s-1.005-0.576-1.741-0.576c-0.705,0-1.289,0.164-1.753,0.492
					c-0.465,0.329-0.696,0.757-0.696,1.285c0,0.512,0.224,0.949,0.672,1.309c0.448,0.36,1.16,0.708,2.137,1.044l1.08,0.36
					c0.689,0.241,1.317,0.517,1.885,0.828c0.568,0.312,1.056,0.684,1.465,1.117c0.408,0.433,0.72,0.925,0.936,1.477
					c0.216,0.552,0.324,1.189,0.324,1.909c0,0.897-0.18,1.669-0.54,2.317c-0.36,0.648-0.821,1.181-1.38,1.597
					c-0.561,0.416-1.193,0.728-1.897,0.936C581.47,880.172,580.782,880.275,580.109,880.275z"/>
			</g>
			<g>
				<path style="fill:#FFFFFF;" d="M655.431,876.625l8.716-10.854h-8.332v-3.073h12.103v3.266l-8.621,10.854h8.716v3.073h-12.582
					V876.625z"/>
				<path style="fill:#FFFFFF;" d="M670.702,862.699h3.242v17.193h-3.242V862.699z"/>
				<path style="fill:#FFFFFF;" d="M677.402,879.891v-17.193h6.051c0.817,0,1.581,0.132,2.293,0.396
					c0.712,0.264,1.333,0.636,1.861,1.117s0.944,1.053,1.249,1.717c0.304,0.665,0.456,1.397,0.456,2.198
					c0,0.816-0.152,1.557-0.456,2.221c-0.305,0.664-0.721,1.236-1.249,1.717s-1.149,0.852-1.861,1.117
					c-0.713,0.264-1.477,0.396-2.293,0.396h-2.809v6.315H677.402z M683.501,870.503c0.848,0,1.489-0.241,1.921-0.721
					c0.433-0.48,0.648-1.032,0.648-1.656c0-0.304-0.052-0.601-0.156-0.889c-0.105-0.288-0.264-0.54-0.48-0.756
					c-0.216-0.217-0.484-0.388-0.805-0.516c-0.32-0.129-0.696-0.193-1.128-0.193h-2.857v4.731H683.501z"/>
			</g>
		</g>
		<g style="opacity:0.61;">
			<path style="fill:#FFFFFF;" d="M609.144,863.785h19.739v4.881h-19.739V863.785z M609.144,872.201h19.739v4.884h-19.739V872.201z"
				/>
		</g>
	</g>
	<g style="opacity:0.61;">
		<path style="fill:#FFFFFF;" d="M297,963.076h3.498c2.75,0,4.603,1.768,4.603,4.297s-1.854,4.296-4.603,4.296H297V963.076z
			 M300.449,970.883c2.283,0,3.756-1.448,3.756-3.51s-1.473-3.511-3.756-3.511h-2.541v7.021H300.449z"/>
		<path style="fill:#FFFFFF;" d="M315.251,967.373c0-2.504,1.915-4.37,4.517-4.37c2.577,0,4.505,1.853,4.505,4.37
			c0,2.516-1.927,4.369-4.505,4.369C317.166,971.742,315.251,969.877,315.251,967.373z M323.365,967.373
			c0-2.05-1.534-3.56-3.596-3.56c-2.075,0-3.621,1.51-3.621,3.56c0,2.049,1.546,3.559,3.621,3.559
			C321.831,970.932,323.365,969.422,323.365,967.373z"/>
		<path style="fill:#FFFFFF;" d="M346.724,963.076l-2.897,8.593h-0.957l-2.516-7.328l-2.529,7.328h-0.945l-2.897-8.593h0.933
			l2.479,7.389l2.566-7.389h0.847l2.529,7.426l2.516-7.426H346.724z"/>
		<path style="fill:#FFFFFF;" d="M364.435,963.076v8.593h-0.749l-5.524-6.972v6.972h-0.908v-8.593h0.749l5.536,6.973v-6.973H364.435
			z"/>
		<path style="fill:#FFFFFF;" d="M376.108,963.076h0.908v7.807h4.812v0.786h-5.72V963.076z"/>
		<path style="fill:#FFFFFF;" d="M391.279,967.373c0-2.504,1.915-4.37,4.517-4.37c2.577,0,4.505,1.853,4.505,4.37
			c0,2.516-1.927,4.369-4.505,4.369C393.194,971.742,391.279,969.877,391.279,967.373z M399.392,967.373
			c0-2.05-1.534-3.56-3.596-3.56c-2.075,0-3.621,1.51-3.621,3.56c0,2.049,1.546,3.559,3.621,3.559
			C397.858,970.932,399.392,969.422,399.392,967.373z"/>
		<path style="fill:#FFFFFF;" d="M416.478,969.374h-4.787l-1.031,2.295h-0.945l3.928-8.593h0.896l3.928,8.593h-0.957
			L416.478,969.374z M416.147,968.637l-2.062-4.615l-2.062,4.615H416.147z"/>
		<path style="fill:#FFFFFF;" d="M428.765,963.076h3.498c2.75,0,4.603,1.768,4.603,4.297s-1.854,4.296-4.603,4.296h-3.498V963.076z
			 M432.214,970.883c2.283,0,3.756-1.448,3.756-3.51s-1.473-3.511-3.756-3.511h-2.541v7.021H432.214z"/>
		<path style="fill:#FFFFFF;" d="M465.256,969.374h-4.787l-1.031,2.295h-0.945l3.928-8.593h0.896l3.928,8.593h-0.957
			L465.256,969.374z M464.925,968.637l-2.062-4.615l-2.062,4.615H464.925z"/>
		<path style="fill:#FFFFFF;" d="M477.543,963.076h0.908v7.807h4.812v0.786h-5.72V963.076z"/>
		<path style="fill:#FFFFFF;" d="M493.647,963.076h0.908v7.807h4.812v0.786h-5.72V963.076z"/>
		<path style="fill:#FFFFFF;" d="M522.749,963.862v3.376h4.443v0.786h-4.443v3.646h-0.909v-8.593h5.891v0.786H522.749z"/>
		<path style="fill:#FFFFFF;" d="M538.485,963.076h0.909v8.593h-0.909V963.076z"/>
		<path style="fill:#FFFFFF;" d="M551.067,963.076h0.909v7.807h4.811v0.786h-5.72V963.076z"/>
		<path style="fill:#FFFFFF;" d="M573.246,970.883v0.786h-6.076v-8.593h5.891v0.786h-4.983v3.056h4.443v0.774h-4.443v3.191H573.246z
			"/>
		<path style="fill:#FFFFFF;" d="M597.255,963.862v3.376h4.443v0.786h-4.443v3.646h-0.909v-8.593h5.891v0.786H597.255z"/>
		<path style="fill:#FFFFFF;" d="M612.119,967.373c0-2.504,1.915-4.37,4.517-4.37c2.577,0,4.505,1.853,4.505,4.37
			c0,2.516-1.927,4.369-4.505,4.369C614.034,971.742,612.119,969.877,612.119,967.373z M620.232,967.373
			c0-2.05-1.534-3.56-3.596-3.56c-2.075,0-3.622,1.51-3.622,3.56c0,2.049,1.547,3.559,3.622,3.559
			C618.698,970.932,620.232,969.422,620.232,967.373z"/>
		<path style="fill:#FFFFFF;" d="M637.919,971.669l-1.963-2.762c-0.222,0.024-0.442,0.037-0.688,0.037h-2.307v2.725h-0.909v-8.593
			h3.216c2.185,0,3.511,1.105,3.511,2.946c0,1.351-0.712,2.295-1.964,2.7l2.099,2.946H637.919z M637.871,966.022
			c0-1.375-0.909-2.161-2.627-2.161h-2.283v4.309h2.283C636.962,968.17,637.871,967.373,637.871,966.022z"/>
		<path style="fill:#FFFFFF;" d="M658.724,963.076v8.593h-0.871v-6.874l-3.376,5.782h-0.429l-3.376-5.745v6.837h-0.872v-8.593h0.749
			l3.732,6.371l3.695-6.371H658.724z"/>
		<path style="fill:#FFFFFF;" d="M675.787,969.374h-4.788l-1.031,2.295h-0.946l3.928-8.593h0.896l3.928,8.593h-0.957
			L675.787,969.374z M675.455,968.637l-2.062-4.615l-2.062,4.615H675.455z"/>
		<path style="fill:#FFFFFF;" d="M689.312,963.862h-3.02v-0.786h6.948v0.786h-3.02v7.807h-0.908V963.862z"/>
		<path style="fill:#FFFFFF;" d="M702.605,970.626l0.356-0.7c0.614,0.601,1.706,1.043,2.835,1.043c1.608,0,2.308-0.675,2.308-1.522
			c0-2.357-5.29-0.908-5.29-4.087c0-1.265,0.982-2.357,3.167-2.357c0.97,0,1.976,0.282,2.664,0.761l-0.307,0.724
			c-0.737-0.479-1.596-0.712-2.357-0.712c-1.571,0-2.271,0.7-2.271,1.559c0,2.357,5.29,0.933,5.29,4.063
			c0,1.265-1.006,2.344-3.204,2.344C704.508,971.742,703.243,971.288,702.605,970.626z"/>
	</g>
</g>
<g>
</g>
<g>
	<path style="fill:#EB008B;" d="M140.142,738.731h8.154v56.939h-8.154V770.91h-31.984v24.759H100v-56.939h8.158v24.644h31.984
		V738.731L140.142,738.731z M201.393,737.944c8.773,0,16.099,2.772,21.964,8.345c5.842,5.563,8.777,12.541,8.777,20.931
		c0,8.401-2.958,15.35-8.861,20.853c-5.926,5.498-13.378,8.252-22.36,8.252c-8.573,0-15.741-2.754-21.452-8.252
		c-5.74-5.503-8.568-12.41-8.568-20.681c0-8.512,2.884-15.541,8.638-21.104C185.28,740.717,192.56,737.944,201.393,737.944
		L201.393,737.944z M201.686,745.666c-6.498,0-11.87,2.051-16.062,6.125c-4.21,4.075-6.312,9.266-6.312,15.601
		c0,6.131,2.103,11.238,6.312,15.322c4.228,4.065,9.484,6.126,15.815,6.126c6.377,0,11.661-2.107,15.908-6.247
		c4.265-4.148,6.414-9.326,6.414-15.522c0-6.023-2.149-11.108-6.414-15.22C213.101,747.732,207.882,745.666,201.686,745.666
		L201.686,745.666z M294.278,738.731h8.186v32.319c0,4.382-0.326,7.684-0.963,9.908c-0.637,2.232-1.423,4.098-2.353,5.559
		c-0.953,1.493-2.093,2.809-3.465,3.991c-4.498,3.865-10.382,5.819-17.666,5.819c-7.428,0-13.373-1.94-17.862-5.791
		c-1.345-1.195-2.498-2.526-3.437-4.019c-0.935-1.461-1.703-3.294-2.317-5.442c-0.637-2.13-0.935-5.503-0.935-10.085v-32.258h8.205
		v32.319c0,5.354,0.633,9.098,1.847,11.164c1.205,2.111,3.084,3.781,5.573,5.023c2.498,1.274,5.442,1.907,8.847,1.907
		c4.837,0,8.754-1.269,11.829-3.781c1.591-1.358,2.749-2.963,3.447-4.8c0.693-1.851,1.065-5.014,1.065-9.512V738.731
		L294.278,738.731z M340.417,771.807l-6.205-3.758c-3.903-2.367-6.647-4.698-8.307-7c-1.642-2.284-2.451-4.926-2.451-7.936
		c0-4.456,1.549-8.121,4.675-10.907c3.084-2.8,7.131-4.177,12.117-4.177c4.759,0,9.113,1.312,13.075,3.987v9.261
		c-4.088-3.972-8.526-5.944-13.247-5.944c-2.642,0-4.842,0.623-6.55,1.855c-1.716,1.251-2.591,2.852-2.591,4.763
		c0,1.684,0.637,3.312,1.884,4.8c1.265,1.526,3.284,3.056,6.08,4.693l6.228,3.67c6.954,4.144,10.443,9.391,10.443,15.796
		c0,4.578-1.535,8.28-4.577,11.131c-3.075,2.861-7.033,4.284-11.931,4.284c-5.605,0-10.75-1.726-15.369-5.177v-10.355
		c4.4,5.587,9.494,8.349,15.29,8.349c2.553,0,4.702-0.693,6.358-2.135c1.707-1.419,2.558-3.201,2.558-5.344
		C347.896,778.175,345.394,774.901,340.417,771.807L340.417,771.807z M377.08,738.731h32.267v7.28h-24.099v17.364h23.309v7.294
		h-23.309v17.684h24.872v7.233H377.08V738.731L377.08,738.731z M471.449,758.104c5.721,0,10.475,1.833,14.243,5.531
		c3.749,3.665,5.661,8.308,5.661,13.857c0,5.405-1.912,9.903-5.754,13.485c-3.823,3.568-8.638,5.349-14.466,5.349
		c-5.628,0-10.326-1.795-14.089-5.433c-3.782-3.656-5.661-8.177-5.661-13.596c0-5.489,1.912-10.057,5.721-13.708
		C460.927,759.937,465.705,758.104,471.449,758.104L471.449,758.104z M471.054,764.793c-3.544,0-6.475,1.149-8.745,3.484
		c-2.289,2.335-3.433,5.322-3.433,8.968c0,3.549,1.158,6.485,3.493,8.75c2.349,2.252,5.335,3.41,9.019,3.41
		c3.624,0,6.615-1.158,8.931-3.442c2.335-2.321,3.498-5.247,3.498-8.838c0-3.558-1.205-6.512-3.628-8.847
		C477.78,765.942,474.714,764.793,471.054,764.793L471.054,764.793z M512.987,758.179v-2.232c0-6.038,1.298-10.536,3.847-13.494
		c2.587-2.963,5.661-4.424,9.252-4.424c1.54,0,3.363,0.233,5.484,0.703v7.28c-1.186-0.47-2.335-0.679-3.424-0.679
		c-2.903,0-4.898,0.791-6.051,2.335c-1.112,1.535-1.684,4.298-1.684,8.28v2.232h6.68v6.684h-6.68v30.806h-7.424v-30.806h-5.358
		v-6.684H512.987L512.987,758.179z M569.321,795.669v-57.004h18.053c5.423,0,9.782,1.479,12.982,4.409
		c3.247,2.936,4.866,6.866,4.866,11.811c0,3.307-0.842,6.242-2.489,8.81c-1.66,2.553-3.926,4.381-6.81,5.563
		c-2.879,1.139-7.005,1.73-12.392,1.73h-6.01v24.681H569.321L569.321,795.669z M585.945,745.912h-8.424v17.811h8.912
		c3.33,0,5.87-0.786,7.652-2.326c1.814-1.591,2.703-3.8,2.703-6.707C596.788,748.829,593.174,745.912,585.945,745.912
		L585.945,745.912z M664.481,738.731h8.187v32.319c0,4.382-0.297,7.684-0.935,9.908c-0.642,2.232-1.447,4.098-2.377,5.559
		c-0.926,1.493-2.079,2.809-3.451,3.991c-4.517,3.865-10.396,5.819-17.671,5.819c-7.429,0-13.387-1.94-17.848-5.791
		c-1.368-1.195-2.489-2.526-3.47-4.019c-0.93-1.461-1.68-3.294-2.321-5.442c-0.595-2.13-0.889-5.503-0.889-10.085v-32.258h8.173
		v32.319c0,5.354,0.618,9.098,1.819,11.164c1.251,2.111,3.117,3.781,5.591,5.023c2.507,1.274,5.465,1.907,8.843,1.907
		c4.861,0,8.796-1.269,11.847-3.781c1.586-1.358,2.744-2.963,3.442-4.8c0.684-1.851,1.06-5.014,1.06-9.512V738.731L664.481,738.731z
		 M696.758,795.669v-56.939h14.261c5.759,0,10.359,1.451,13.722,4.298c3.372,2.856,5.074,6.68,5.074,11.568
		c0,3.316-0.842,6.177-2.489,8.605c-1.647,2.419-4.051,4.233-7.149,5.428c1.847,1.186,3.61,2.805,5.34,4.87
		c1.74,2.07,4.191,5.661,7.34,10.806c2,3.232,3.577,5.651,4.777,7.302l3.015,4.061h-9.68l-2.498-3.739
		c-0.088-0.126-0.247-0.382-0.507-0.698l-1.582-2.228l-2.54-4.172l-2.721-4.424c-1.665-2.349-3.219-4.209-4.638-5.609
		c-1.381-1.377-2.633-2.363-3.767-2.982c-1.135-0.595-3.047-0.907-5.698-0.907h-2.121v24.759H696.758L696.758,795.669z
		 M707.34,745.666h-2.442v17.968h3.098c4.135,0,6.959-0.331,8.489-1.047c1.568-0.721,2.745-1.772,3.61-3.195
		c0.861-1.428,1.284-3.042,1.284-4.893c0-1.782-0.493-3.386-1.418-4.838c-0.963-1.47-2.307-2.488-4.01-3.098
		C714.21,745.978,711.354,745.666,707.34,745.666L707.34,745.666z M759.571,738.731h8.145v56.939h-8.145V738.731L759.571,738.731z
		 M788.044,738.665h47.552v7.247h-19.848v49.757h-8.172v-49.757h-19.532V738.665L788.044,738.665z M890.12,738.731H900
		l-21.039,26.84v30.099h-8.335V765.57l-21.044-26.84h9.861l15.243,19.648L890.12,738.731L890.12,738.731z"/>
	<polygon style="fill-rule:evenodd;clip-rule:evenodd;fill:#C6E9FA;" points="135.049,203.675 858.699,203.675 858.699,680.256 
		135.049,680.256 135.049,203.675 	"/>
	<path style="fill-rule:evenodd;clip-rule:evenodd;fill:#034693;" d="M135.044,203.689h723.655v196.674
		c-149.28-8.471-294.309,22.788-442.059,26.234H135.044V203.689L135.044,203.689z"/>
	<path style="fill-rule:evenodd;clip-rule:evenodd;fill:#034693;" d="M135.049,680.215h723.651V575.817
		c-46.566-2.07-90.201-1.619-131.577-1.772c-228.402-0.841-388.097,21.56-592.074,20.481V680.215L135.049,680.215z"/>
	<path style="fill-rule:evenodd;clip-rule:evenodd;fill:#FFFFFF;" d="M379.512,223.518h26.039h62.13v23.429h-62.13v49.315h62.13
		v23.439h-62.13v49.324h62.13v23.434h-62.13h-26.039v-23.434v-49.324v-23.439v-49.315V223.518L379.512,223.518z M695.349,223.518
		h26.03h31.049v23.429h-31.049V392.46h-26.03V246.947h-31.086v-23.429H695.349L695.349,223.518z M508.298,391.976h24.02V262.711
		l81.541,129.581h25.271V224.146h-24.015v127.372l-81.871-128h-24.946V391.976L508.298,391.976z M329.276,224.634h30.49
		l-65.232,83.68l63.809,85.439h-32.272l-58.748-83.239v81.945h-26.021V223.518h26.021v84.773L329.276,224.634L329.276,224.634z"/>
	<path style="fill:#FFFFFF;" d="M282.417,600.917l10.243,39.533l23.9-38.337h8.121l-35.184,55.72l-10.061-39.291l-24.211,39.426
		l-15.29-55.855h8.201l10.052,38.337L282.417,600.917L282.417,600.917z M350.124,622.401h7.215l-5.777,33.361h-7.396l0.94-5.41
		c-3.861,4.359-8.577,6.531-14.173,6.531c-4.554,0-8.21-1.312-10.917-3.968c-2.754-2.642-4.172-6.07-4.266-10.242
		c0.21-1.572,0.344-2.786,0.484-3.707c1-5.451,3.568-9.745,7.726-12.898c4.117-3.149,8.536-4.693,13.262-4.6
		c2.317,0,4.591,0.572,6.884,1.674c2.279,1.103,3.991,2.819,5.121,5.079L350.124,622.401L350.124,622.401z M347.608,638.835
		c0.051-0.377,0.093-0.735,0.121-1.061c0.042-0.335,0.046-0.763,0.046-1.223c0-2.763-0.819-4.991-2.484-6.764
		c-1.679-1.749-4.261-2.623-7.754-2.623c-2.936-0.084-5.861,0.921-8.759,3.093c-2.921,2.173-4.679,5.057-5.419,8.708
		c-0.014,0.4-0.083,0.758-0.098,1.121c-0.032,0.349-0.088,0.865-0.214,1.521c0.069,2.94,1.051,5.284,2.949,7.028
		c1.893,1.772,4.163,2.647,6.726,2.647c3.87-0.098,7.149-1.265,9.847-3.461C345.291,645.617,346.971,642.622,347.608,638.835
		L347.608,638.835z M370.13,622.401l2.265-12.745h7.247l-2.275,12.745h7.103l-1.135,5.973h-6.996l-4.912,27.388h-7.242l4.907-27.388
		h-3.94l0.972-5.973H370.13L370.13,622.401z M413.426,644.664l5.47,3.204c-5.568,6.219-12.015,9.215-19.308,9.014
		c-4.773-0.065-8.503-1.391-11.182-3.926c-2.689-2.544-4.084-5.926-4.195-10.14c0.223-2.322,0.409-3.982,0.563-4.973
		c1.023-4.656,3.424-8.563,7.21-11.671c3.782-3.135,8.424-4.707,13.88-4.707c5.275,0,9.08,1.289,11.438,3.837
		c2.354,2.582,3.54,5.829,3.54,9.778c0,2.065-0.205,3.791-0.637,5.084H391.7c0,0.442-0.117,1.195-0.326,2.233
		c0.098,2.582,1.047,4.735,2.819,6.382c1.786,1.665,4.149,2.502,7.089,2.502c2.181,0,4.405-0.628,6.6-1.856
		C410.091,648.199,411.933,646.613,413.426,644.664L413.426,644.664z M413.906,635.332c0-2.469-0.721-4.456-2.172-5.995
		c-1.433-1.568-3.572-2.312-6.34-2.312c-2.437,0-4.833,0.638-7.242,1.921c-2.437,1.284-4.205,3.401-5.307,6.386H413.906
		L413.906,635.332z M439.34,622.401l-1.033,5.684c1.544-2.177,3.358-3.842,5.409-4.945c2.07-1.102,4.126-1.674,6.178-1.674
		c2.409,0,4.437,0.507,6.028,1.502l-4.442,5.977c-1.121-0.86-2.698-1.283-4.735-1.283c-3.065,0-5.395,1.089-7.033,3.247
		c-1.651,2.144-2.768,4.791-3.358,7.926l-2.972,16.927h-7.233l6.019-33.361H439.34L439.34,622.401z M489.878,602.112h9.661
		c6.396,0,11.777,0.939,16.182,2.786c4.391,1.837,5.912,6.131,4.512,12.768c-0.749,3.819-2.358,6.889-4.8,9.192
		c-2.419,2.289-5.2,3.931-8.322,4.931c-3.112,1.009-6.177,1.488-9.177,1.488h-5.968l-4.098,22.485h-7.712L489.878,602.112
		L489.878,602.112z M499.767,608.112h-3.293l-3.456,19.183c6.182,0.237,10.913-0.437,14.252-2.056
		c3.331-1.614,5.331-4.312,6.033-8.098c0.475-2.089,0.158-3.791-0.953-5.191c-1.126-1.317-2.777-2.312-4.954-2.926
		C505.223,608.41,502.675,608.112,499.767,608.112L499.767,608.112z M551.627,622.401h7.312l-3.461,19.206
		c-0.754,4.358-2.693,8.07-5.838,11.168c-3.135,3.093-7.372,4.633-12.68,4.633c-3.968,0-7.256-1.116-9.87-3.363
		c-2.577-2.232-3.921-5.172-3.968-8.824c0.125-0.758,0.163-1.34,0.186-1.712c0.028-0.442,0.074-0.847,0.135-1.331l3.466-19.778
		h7.386l-3.466,18.913c0,0.242-0.107,0.93-0.321,2.061c0.214,5.261,2.735,7.907,7.572,7.907c5.54,0,8.922-3.312,10.168-9.968
		L551.627,622.401L551.627,622.401z M578.168,622.401l-1.038,5.684c1.544-2.177,3.349-3.842,5.405-4.945
		c2.083-1.102,4.135-1.674,6.168-1.674c2.428,0,4.451,0.507,6.042,1.502l-4.419,5.977c-1.125-0.86-2.74-1.283-4.758-1.283
		c-3.047,0-5.41,1.089-7.047,3.247c-1.615,2.144-2.754,4.791-3.335,7.926l-2.973,16.927h-7.252l6.047-33.361H578.168
		L578.168,622.401z M609.691,602.697c1.321,0,2.326,0.345,3.126,1.02c0.749,0.665,1.167,1.651,1.167,2.888
		c0,1.331-0.623,2.479-1.865,3.489c-1.214,0.991-2.595,1.488-4.103,1.488c-1.293,0-2.298-0.372-3.014-1.102
		c-0.726-0.716-1.149-1.563-1.261-2.521c0.638-1.707,1.396-3.015,2.177-3.936C606.724,603.125,607.984,602.697,609.691,602.697
		L609.691,602.697z M602.612,622.401h7.252l-5.963,33.361h-7.238L602.612,622.401L602.612,622.401z M623.948,628.374h-3.308
		l0.893-5.973h3.442l2.823-16.508c0.712-3.782,2.261-6.82,4.684-9.219c2.405-2.391,5.628-3.615,9.642-3.615
		c2.056,0,3.791,0.312,5.219,0.898l-1.26,6.531c-1.623-0.93-3.191-1.419-4.726-1.419c-3.391,0-5.568,2.67-6.47,8.033l-2.651,15.299
		h9.889l-1.042,5.973h-9.982l-4.838,27.388h-7.228L623.948,628.374L623.948,628.374z M656.443,602.697
		c1.279,0,2.326,0.345,3.107,1.02c0.767,0.665,1.168,1.651,1.168,2.888c0,1.331-0.614,2.479-1.866,3.489
		c-1.228,0.991-2.595,1.488-4.098,1.488c-1.284,0-2.298-0.372-3.009-1.102c-0.726-0.716-1.126-1.563-1.256-2.521
		c0.651-1.707,1.4-3.015,2.168-3.936C653.471,603.125,654.727,602.697,656.443,602.697L656.443,602.697z M649.369,622.401h7.238
		l-5.954,33.361h-7.252L649.369,622.401L649.369,622.401z M693.307,644.664l5.47,3.204c-5.563,6.219-12.024,9.215-19.304,9.014
		c-4.8-0.065-8.508-1.391-11.219-3.926c-2.67-2.544-4.075-5.926-4.163-10.14c0.209-2.322,0.391-3.982,0.563-4.973
		c1.014-4.656,3.414-8.563,7.196-11.671c3.786-3.135,8.406-4.707,13.88-4.707c5.261,0,9.071,1.289,11.452,3.837
		c2.358,2.582,3.54,5.829,3.54,9.778c0,2.065-0.228,3.791-0.67,5.084h-28.472c0,0.442-0.102,1.195-0.335,2.233
		c0.107,2.582,1.07,4.735,2.814,6.382c1.772,1.665,4.149,2.502,7.089,2.502c2.186,0,4.4-0.628,6.615-1.856
		C689.948,648.199,691.799,646.613,693.307,644.664L693.307,644.664z M693.786,635.332c0-2.469-0.712-4.456-2.186-5.995
		c-1.437-1.568-3.558-2.312-6.349-2.312c-2.4,0-4.81,0.638-7.224,1.921c-2.442,1.284-4.2,3.401-5.335,6.386H693.786L693.786,635.332
		z M719.211,622.401l-1.051,5.684c1.586-2.177,3.363-3.842,5.433-4.945c2.089-1.102,4.135-1.674,6.154-1.674
		c2.423,0,4.419,0.507,6.051,1.502l-4.419,5.977c-1.139-0.86-2.726-1.283-4.763-1.283c-3.056,0-5.396,1.089-7.033,3.247
		c-1.651,2.144-2.763,4.791-3.358,7.926l-2.963,16.927h-7.242l6.038-33.361H719.211L719.211,622.401z M755.999,630.063
		c-0.651-1.926-2.089-2.898-4.265-2.898c-1.191,0-2.261,0.339-3.247,0.968c-0.949,0.637-1.465,1.451-1.512,2.442
		c-0.051,1.205,0.833,2.266,2.665,3.256c1.814,0.954,3.624,1.819,5.433,2.572c1.796,0.777,3.363,1.796,4.707,3.103
		c1.331,1.302,2.005,3.033,2.005,5.158c0,2.227-0.707,4.279-2.089,6.168c-1.4,1.875-3.205,3.34-5.405,4.451
		c-2.195,1.07-4.47,1.6-6.842,1.6c-3.656,0-6.475-0.726-8.503-2.266c-1.991-1.507-3.247-3.227-3.744-5.12l6.623-2.638
		c0.423,1.376,1.186,2.442,2.237,3.158c1.084,0.754,2.307,1.168,3.721,1.265c1.67-0.098,3.177-0.651,4.61-1.661
		c1.428-1.038,2.144-2.232,2.144-3.6c0-0.888-0.409-1.717-1.214-2.465c-0.79-0.73-1.762-1.373-2.879-1.898
		c-1.144-0.572-2.247-1.103-3.307-1.624c-4.675-2.26-7.093-4.754-7.238-7.484c0.689-3.102,2.195-5.726,4.526-7.898
		c2.349-2.131,5.233-3.186,8.661-3.186c4.451,0,7.587,1.925,9.354,5.828L755.999,630.063L755.999,630.063z"/>
	<path style="fill:#0071A1;" d="M265.058,534.247h-14.797l-2.725-63.317l-12.024,63.317h-14.071l15.825-75.773h22.187l2.34,53.079
		l25.835-53.079h22.495l-15.867,75.773h-14.233l14.959-62.856L265.058,534.247L265.058,534.247z M325.35,458.473h14.867
		l-2.842,13.448h-14.787L325.35,458.473L325.35,458.473z M321.029,479.336h14.815l-11.447,54.911h-14.843L321.029,479.336
		L321.029,479.336z M350.645,479.336h14.048l-1.437,7.145c3.498-3.033,6.773-5.177,9.842-6.466c3.042-1.307,6.261-1.958,9.638-1.958
		c4.526,0,8.084,1.279,10.661,3.875c2.61,2.605,3.917,6.014,3.917,10.289c0,1.944-0.553,5.6-1.693,10.963l-6.456,31.063h-14.842
		l6.512-31.179c0.953-4.623,1.437-7.423,1.437-8.303c0-1.902-0.549-3.377-1.675-4.493c-1.102-1.075-2.684-1.604-4.684-1.604
		c-2.167,0-4.573,0.898-7.21,2.744c-2.689,1.819-4.777,4.233-6.275,7.205c-1.093,2.158-2.335,6.526-3.712,13.112l-4.717,22.518
		h-14.843L350.645,479.336L350.645,479.336z M457.076,511.403H419.85c-0.033,0.572-0.056,1.056-0.056,1.335
		c0,3.647,1.046,6.6,3.117,8.843c2.107,2.251,4.661,3.358,7.656,3.358c4.907,0,8.75-2.568,11.508-7.628l13.28,2.2
		c-2.595,5.358-6.028,9.359-10.373,12.015c-4.312,2.684-9.173,3.991-14.541,3.991c-7.363,0-13.364-2.307-17.987-6.991
		c-4.6-4.647-6.926-10.824-6.926-18.532c0-7.512,2.103-14.182,6.252-20.039c5.698-7.931,13.792-11.898,24.35-11.898
		c6.735,0,12.066,2.088,16.006,6.233c3.986,4.163,5.958,9.95,5.958,17.443C458.094,505.323,457.769,508.547,457.076,511.403
		L457.076,511.403z M444.577,502.351c0.009-0.637,0.009-1.158,0.009-1.479c0-4.088-0.907-7.122-2.726-9.178
		c-1.809-2.005-4.279-3.028-7.326-3.028c-3.065,0-5.796,1.139-8.257,3.456c-2.433,2.317-4.079,5.731-4.921,10.229H444.577
		L444.577,502.351z M473.152,479.336h13.833l-2.219,10.675c5.177-7.977,10.759-11.954,16.787-11.954c2.135,0,4.438,0.553,6.903,1.6
		l-5.717,12.168c-1.344-0.521-2.758-0.731-4.275-0.731c-2.535,0-5.14,0.944-7.786,2.893c-2.614,1.921-4.703,4.502-6.182,7.735
		c-1.47,3.204-2.945,8.312-4.373,15.303l-3.628,17.22h-14.848L473.152,479.336L473.152,479.336z M524.63,494.9l-14.485-1.228
		c1.651-4.893,4.554-8.721,8.671-11.48c4.112-2.74,9.559-4.135,16.331-4.135c7.074,0,12.303,1.428,15.666,4.274
		c3.4,2.842,5.061,6.312,5.061,10.401c0,1.656-0.135,3.423-0.423,5.275c-0.297,1.87-1.312,6.773-3.07,14.685
		c-1.461,6.531-2.186,11.14-2.186,13.745c0,2.349,0.419,4.959,1.256,7.81h-14.42c-0.577-1.987-0.954-4.056-1.107-6.201
		c-2.181,2.414-4.652,4.275-7.48,5.549c-2.828,1.293-5.666,1.921-8.53,1.921c-4.563,0-8.303-1.474-11.266-4.437
		c-2.954-2.996-4.456-6.819-4.456-11.513c0-5.205,1.647-9.41,4.903-12.554c3.256-3.135,9.061-5.024,17.443-5.693
		c7.056-0.567,11.768-1.274,14.155-2.116c0.632-2.089,0.93-3.722,0.93-4.963c0-1.577-0.642-2.936-1.902-3.968
		c-1.288-1.075-3.172-1.604-5.698-1.604c-2.661,0-4.731,0.53-6.284,1.604C526.202,491.388,525.16,492.918,524.63,494.9L524.63,494.9
		z M538.719,508.654c-0.888,0.242-2.089,0.47-3.572,0.684c-7.429,0.898-12.276,2.2-14.55,3.926
		c-1.637,1.232-2.442,2.921-2.442,5.009c0,1.717,0.628,3.182,1.865,4.354c1.228,1.204,2.861,1.781,4.898,1.781
		c2.242,0,4.372-0.526,6.336-1.614c1.991-1.084,3.47-2.474,4.456-4.186c0.982-1.698,1.833-4.363,2.596-7.991L538.719,508.654
		L538.719,508.654z M562.437,534.247l15.88-75.773h14.797l-15.839,75.773H562.437L562.437,534.247z M637.396,534.247h-15.597
		l15.857-75.773H671.3c5.791,0,10.284,0.596,13.517,1.782c3.223,1.205,5.833,3.354,7.81,6.54c1.973,3.149,2.972,7.014,2.972,11.535
		c0,6.428-1.921,11.741-5.777,15.927c-3.884,4.191-9.712,6.783-17.522,7.783c1.977,1.8,3.842,4.148,5.614,7.084
		c3.502,5.931,7.354,14.308,11.647,25.123h-16.768c-1.33-4.28-3.968-10.936-7.908-20.002c-2.126-4.894-4.4-8.191-6.819-9.88
		c-1.493-0.981-4.061-1.474-7.754-1.474h-6.349L637.396,534.247L637.396,534.247z M646.336,491.518h8.28
		c8.368,0,13.945-0.498,16.671-1.507c2.717-0.996,4.856-2.558,6.428-4.707c1.549-2.14,2.307-4.386,2.307-6.707
		c0-2.777-1.098-4.866-3.344-6.219c-1.377-0.838-4.363-1.256-8.94-1.256h-17.141L646.336,491.518L646.336,491.518z M702.823,504.524
		c0-4.47,0.698-9.196,2.019-14.145c1.753-6.675,4.423-12.424,8.024-17.331c3.596-4.889,8.163-8.759,13.633-11.587
		c5.479-2.889,11.717-4.289,18.722-4.289c9.354,0,16.927,2.916,22.695,8.754c5.791,5.824,8.684,13.541,8.684,23.142
		c0,8.019-1.893,15.75-5.656,23.206c-3.749,7.489-8.842,13.257-15.284,17.257c-6.461,4.051-13.755,6.028-21.872,6.028
		c-7.061,0-12.992-1.563-17.792-4.763c-4.786-3.224-8.173-7.172-10.177-11.936C703.824,514.138,702.823,509.352,702.823,504.524
		L702.823,504.524z M718.238,504.212c0,5.205,1.567,9.568,4.745,13.099c3.168,3.493,7.34,5.261,12.512,5.261
		c4.195,0,8.242-1.396,12.108-4.158c3.903-2.777,7.093-6.959,9.619-12.615c2.539-5.67,3.795-11.117,3.795-16.471
		c0-5.949-1.595-10.628-4.786-14.028c-3.224-3.396-7.289-5.098-12.257-5.098c-7.619,0-13.806,3.53-18.587,10.679
		C720.629,487.946,718.238,495.714,718.238,504.212L718.238,504.212z"/>
	<path style="fill:#0071A1;" d="M778.731,463.479v-20.034h-7.498v-2.68h18.02v2.68h-7.512v20.034H778.731L778.731,463.479z
		 M792.258,463.479v-22.713h4.531l5.377,16.094c0.498,1.511,0.86,2.614,1.075,3.381c0.274-0.832,0.665-2.07,1.214-3.661
		l5.442-15.815h4.042v22.713h-2.897v-19.006l-6.601,19.006h-2.711l-6.577-19.327v19.327H792.258L792.258,463.479z"/>
</g>
</svg>
