<svg clip-rule="evenodd" fill-rule="evenodd" height="1223" image-rendering="optimizeQuality" shape-rendering="geometricPrecision" text-rendering="geometricPrecision" viewBox="8.82 8.82 2540 1233.36" width="2500" xmlns="http://www.w3.org/2000/svg" xmlns:xlink="http://www.w3.org/1999/xlink"><linearGradient id="a" gradientUnits="userSpaceOnUse" x1="2174.66" x2="2218.74" y1="443.9" y2="443.9"><stop offset="0" stop-color="#f3931e"/><stop offset="1" stop-color="#f3931e"/></linearGradient><linearGradient id="b" gradientUnits="userSpaceOnUse" x1="1888.45" x2="1888.45" y1="97.55" y2="1783.34"><stop offset="0" stop-color="#fcc41f"/><stop offset=".259" stop-color="#fac21b"/><stop offset=".302" stop-color="#f9be1d"/><stop offset=".388" stop-color="#f7aa1d"/><stop offset=".431" stop-color="#f3931e"/><stop offset="1" stop-color="#f3931e"/></linearGradient><linearGradient id="c" gradientUnits="userSpaceOnUse" x1="897.79" x2="2322.39" y1="344.32" y2="344.32"><stop offset="0" stop-color="#fcc41f"/><stop offset=".502" stop-color="#f8ab1d"/><stop offset="1" stop-color="#f3931e"/></linearGradient><linearGradient id="d" gradientUnits="userSpaceOnUse" x1="925.19" x2="1989.42" y1="604.5" y2="604.5"><stop offset="0" stop-color="#fcc41f"/><stop offset=".2" stop-color="#fcc41f"/><stop offset=".522" stop-color="#f8ab1d"/><stop offset=".831" stop-color="#f3931e"/><stop offset="1" stop-color="#f3931e"/></linearGradient><linearGradient id="e" gradientUnits="userSpaceOnUse" x1="236.74" x2="1629.88" y1="751.9" y2="967.28"><stop offset="0" stop-color="#f3931e"/><stop offset=".522" stop-color="#fcc41f"/><stop offset=".761" stop-color="#f8ab1d"/><stop offset="1" stop-color="#f3931e"/></linearGradient><linearGradient id="f" gradientUnits="userSpaceOnUse" x1="259.56" x2="1647.53" xlink:href="#e" y1="617.06" y2="831.64"/><linearGradient id="g" gradientUnits="userSpaceOnUse" x1="234.66" x2="1620.55" xlink:href="#e" y1="783.88" y2="998.09"/><linearGradient id="h" gradientUnits="userSpaceOnUse" x1="246.03" x2="1628.5" xlink:href="#e" y1="719.73" y2="934.74"/><linearGradient id="i" gradientUnits="userSpaceOnUse" x1="248.71" x2="1638.53" xlink:href="#e" y1="684.86" y2="899.73"/><linearGradient id="j" gradientUnits="userSpaceOnUse" x1="897.29" x2="2321.69" y1="597.97" y2="597.97"><stop offset="0" stop-color="#fac21b"/><stop offset=".361" stop-color="#fac21b"/><stop offset=".471" stop-color="#fac01c"/><stop offset=".812" stop-color="#f5ab1f"/><stop offset=".949" stop-color="#f3931e"/><stop offset="1" stop-color="#f3931e"/></linearGradient><linearGradient id="k" gradientUnits="userSpaceOnUse" x1="232.22" x2="1618.05" xlink:href="#e" y1="795.37" y2="1009.6"/><linearGradient id="l" gradientUnits="userSpaceOnUse" x1="256.56" x2="1642.53" xlink:href="#e" y1="650.1" y2="864.38"/><path d="m8.82 8.82h2540v1233.36h-2540z" fill="#1c1b17" stroke="#2b2a29" stroke-miterlimit="2.613" stroke-width="17.64"/><path d="m2174.65 443.1c10.8-3.79 19.57 3.67 21.54 5.17 7.52 5.95 15.64 7.76 22.54.57-3.11-10.27-13.05-14.57-22.92-14.57-8.61 0-17.22 3.3-21.16 8.83z" fill="url(#a)"/><path d="m1989.46 925.75v-.09c-.04-.86-.65-1.46-1.5-1.46-41.4 5.35-87.03-12.82-125.02-52.13-37.2-38.35-47.05-76.34-48.71-101.44-2.62-35.13 12.5-71.04 33.3-97.85s39.14-57.71 115.02-54.56c.7 0 1.38-.55 1.38-1.38 0-.72-1.14-1.23-1.14-1.23-.85-.65-13.05-4.42-31.17-4.42-33.32 0-86.62 12.81-125.24 81.71-43.69 77.43 1.94 149.25 1.94 149.25 47.42 75.04 110.93 92.78 151.48 90.72 8.75-1 17.86-2.71 27.23-5.38.4-.09.8-.21 1.24-.34s1.19-.57 1.19-1.4z" fill="url(#b)"/><path d="m925.18 276.46c0 .31.23.84.23.84 9.68 21.38 57.74 93.58 136.18 132.56 104.96 57.73 239.29 63.05 335.52 94.78 52.27 16.38 105.29 42.99 149.8 76.61 87.33 61.46 208.57 222.31 243.83 268.09 17.65 22.71 37.58 40.73 43.52 45.75 21.54 19.03 61.41 42.31 115.71 38.69 3.18-.17 6.44-.51 9.83-.91-40.55 2.06-104.06-15.68-151.48-90.72-77.34-112.32-146.88-202.74-211.64-260.9-62.97-56.58-119.59-81.94-166.82-99.13-93.3-35.52-213.04-34.89-328.73-77.07-40.41-14.45-71.13-32.94-95.63-50.87-44.01-32.18-66.32-64.16-77.42-78.74l-.08-.11c-.32-.32-.68-.49-1.13-.49-.91 0-1.69.75-1.69 1.62z" fill="url(#d)"/><path d="m897.79 175.68c0 .4.18.74.4 1.07s18.51 30.72 57.24 71.87c46.36 48.33 118.26 94.82 207.22 104.91 42.31 5.49 97.26 4.02 146.9-5.24 83.85-15.57 124.85-39.95 203.96-48.81 59.88-7.98 113.91-2.71 161.24 12.31 58.7 18.5 109.33 52.04 158.34 80.1 53.58 30.68 107.53 54.92 162.16 60.34 41.01 4.24 78.38-1.99 104.76-14.57 48.15-24.81 68.45-60.77 68.45-60.77s38.36 39.45 93.43 67.27c12.48 6.44 25.29 12.94 39.11 17.44s-5.14 33.62-16.79 48.98c3.73 2.5 4.09 3.98 4.09 3.98 25.87-20.07 34.94-55.4 34.01-69.3-9.22-3.77-85.29-32.41-142.31-88.7s26.02-49.49 4.39-94.28c-21.72-44.85-66.93-59.25-79.13-61.38v.01c-.06 0-.21-.01-.21-.01-.96 0-1.72.73-1.72 1.64-13.11 52.03 15.36 119.46 52.01 160.25-28.89 40.46-71.75 68.76-137.92 64.21-62.87-2.63-124.38-34.87-189.29-75-70.82-40.93-135.9-89.86-261.49-88.98-29.49 0-82.67 3.69-145.25 22.46-57.03 17.93-136.26 50.83-247.13 44.92-53.24-2.46-108.62-19.2-154.97-47.76-51.48-31.67-93.28-76.39-118.52-107.96-.32-.4-.84-.59-1.37-.59-.87 0-1.61.66-1.61 1.59zm1209.8 29.36s106.05 38.15 59.55 138.09c-49.91-55.13-59.57-112.96-59.55-138.09z" fill="url(#c)"/><path d="m2190.19 489.71h-.69c-14.4.05-29.65 1.67-45.03 5.78-20.71 5.51-48.06 19.17-68.15 36.78-45.21 34.87-97.2 118.11-133.85 142.88-21.27 15.53-50.51 26.94-71.54 26.94-.72 0-1.3.56-1.3 1.34 0 .67.56 1.18 1.27 1.23 65.96 10.53 113.37-33.05 151.21-76.93 36.65-42.58 79.1-87.04 108.28-101.07 18.2-9.31 37.98-15.28 57.2-17.78 51.6-6.46 99.66 6.08 99.66 6.08.44 0 .82-.14 1.03-.36l.02-.04s-.36-1.48-4.09-3.98h-.1s-41.57-20.87-93.92-20.87z" fill="url(#j)"/><path d="m952.59 695.17h-11.9c-18.43 0-33.45 14.98-33.45 33.35v132.04c0 .55-.09 13.75-7.71 21.44-4.6 4.62-11.47 6.83-21.21 6.83h-43.5c-9.76 0-16.69-2.25-21.12-6.83-6.29-6.35-7.86-17.24-7.75-22.14v-131.34c0-18.37-14.96-33.35-33.39-33.35h-11.95v163.78c-.21 5.49 0 33.39 20.23 54.37 9.11 9.53 25.93 20.89 53.98 20.89h43.5c28.07 0 44.89-11.36 54.15-20.89 21.12-21.99 20.21-51.97 20.12-53.2z" fill="url(#h)"/><path d="m617.74 931.34h70.58c18.31-.04 33.97-14.99 33.97-33.38v-102.65h-54.41c-18.3.07-33.92 15.03-33.92 33.33v6.27l44.17.04v51.04h-59.38c-3.37-.13-14.85-1.12-21.5-7.72-4.58-4.51-6.91-11.46-6.91-21.2v-87.64c0-9.71 2.33-16.64 6.91-21.17 6.1-6.14 16.08-7.75 20.52-7.75.52 0 1.05.05 1.89.06l102.63-.01v-12.04c0-18.33-15.66-33.25-33.97-33.31h-69.65c-7.44 0-33.29 1.42-52.75 20.21-9.58 9.17-20.92 25.98-20.92 54.01v87.64c0 28.01 11.34 44.85 20.92 54 19.68 18.98 45.99 20.23 51.82 20.27z" fill="url(#e)"/><path d="m1210.68 930.24h14.91c16.97-1.33 30.47-15.9 30.47-33.11v-156.57h70.7c10.01.75 17.26 3.31 21.64 7.7 4.63 4.53 6.87 11.46 6.87 21.17v19.55c0 9.72-2.24 16.67-6.87 21.21-6.12 6.12-16.48 7.73-21.14 7.73h-52.18c12.26 18.6 33.86 51.2 51.65 77.01 22 32.09 39.28 35.21 55.06 35.31h23.98l-54.23-79.49 5.51-1.35c9.53-2.4 17.12-5.62 22.54-9.77 14.02-10.7 21.1-27.77 21.1-50.65v-19.55c0-28.08-11.4-44.84-20.93-54.01-19.51-18.79-45.76-20.25-53.39-20.25h-115.69z" fill="url(#l)"/><path d="m966.28 930.56h23.96c23.24 0 28.29-9.23 32.77-22.26 3.61-10.13 53.6-165.87 53.6-165.87s49.98 155.74 53.65 165.87c4.46 13.03 9.42 22.26 32.66 22.26h24.03l-80.65-235.39h-35.92c-22.45 0-32.16 24.13-35.24 34.53z" fill="url(#i)"/><path d="m1614.85 857.07v-87.64c0-28.08-11.31-44.84-20.88-54.01-19.16-18.49-44.88-20.2-52.98-20.25h-103.41l-.04.19.1 203.66c.38 15.48 11.37 28.44 26.44 31.58l75.52-.04c.71.04 1.53.04 2.76.04 9.43 0 33.43-1.9 51.61-19.53 9.57-9.11 20.88-25.87 20.88-54zm-128.86-116.51h55.22c1.47 0 14.24.43 21.55 7.7 4.57 4.49 6.82 11.46 6.82 21.17v87.64c0 9.78-2.29 16.69-6.91 21.23-6.14 6.08-16.35 7.69-20.88 7.69h-55.8z" fill="url(#f)"/><path d="m452.19 836.09h50.15l.02-.04v-29.36h-16.95c-17.01 0-31.25 12.79-33.22 29.4z" fill="url(#g)"/><path d="m455.88 695.21h-23.96c-23.22 0-28.27 9.15-32.76 22.18-3.62 10.29-53.57 165.86-53.57 165.86s-50.01-155.42-53.65-165.86c-4.49-13.03-9.57-22.18-32.66-22.18h-24.01l68.69 200.65c3.22 10.5 12.88 34.7 35.42 34.7h35.88z" fill="url(#k)"/><path d="m567.5 978.66c1.45-.23 3.08-.45 4.91-.68 1.82-.23 3.76-.41 5.81-.57 2.05-.15 4.16-.26 6.33-.33 2.17-.08 4.27-.12 6.33-.12 3.49 0 6.74.36 9.75 1.08 3 .71 5.58 1.83 7.75 3.33 2.17 1.51 3.88 3.45 5.13 5.83 1.25 2.37 1.88 5.22 1.88 8.54 0 2.49-.42 4.88-1.25 7.18-.84 2.3-2.04 4.36-3.59 6.17-1.56 1.81-3.43 3.31-5.59 4.52-2.17 1.21-4.62 2-7.36 2.38v.56c1.45.3 2.89.85 4.34 1.64 1.44.79 2.73 1.81 3.87 3.05 1.14 1.25 2.06 2.72 2.74 4.42.68 1.69 1.03 3.6 1.03 5.71 0 4.82-.95 8.95-2.85 12.38s-4.45 6.22-7.64 8.37c-3.2 2.15-6.92 3.74-11.18 4.75-4.25 1.02-8.74 1.53-13.45 1.53h-4.73c-1.94 0-4.01-.06-6.22-.17-2.2-.11-4.41-.28-6.61-.51-2.2-.22-4.22-.56-6.04-1.02zm.12 66.28c.3.15.85.26 1.65.34s1.67.13 2.62.17 1.92.08 2.91.11c.99.04 1.83.06 2.51.06 1.9 0 3.86-.23 5.87-.68 2.02-.45 3.84-1.21 5.47-2.26 1.64-1.06 2.99-2.41 4.05-4.07 1.07-1.66 1.6-3.7 1.6-6.11 0-1.89-.42-3.43-1.26-4.64-.83-1.21-1.93-2.17-3.3-2.88-1.37-.72-2.95-1.21-4.73-1.47-1.79-.27-3.63-.4-5.53-.4h-7.3zm7.18-33.59h4.9c1.07 0 2.32-.02 3.77-.06 1.44-.04 2.66-.13 3.64-.28 1.37-.23 2.84-.61 4.39-1.13 1.56-.53 2.97-1.28 4.22-2.26 1.26-.99 2.3-2.23 3.14-3.74.83-1.51 1.25-3.39 1.25-5.65 0-3.25-1.08-5.47-3.25-6.68-2.16-1.2-4.92-1.81-8.26-1.81-1.98 0-3.8.04-5.48.12-1.67.07-2.96.19-3.87.34zm63.05-10.63.12 9.95h.45c1.68-3.02 3.71-5.58 6.1-7.69 2.4-2.11 5.42-3.17 9.07-3.17 1.59 0 3.49.3 5.7.91l-3.54 12.1c-.76-.23-1.48-.42-2.16-.57-.69-.15-1.41-.22-2.17-.22-3.12 0-5.98 1-8.61 2.99-2.62 2-4.62 4.32-5.98 6.96l-7.41 35.29h-14.03l12.09-56.55zm29.76 0h14.03l-12.09 56.55h-14.02zm2.17-16.07c0-2.48.82-4.41 2.45-5.76 1.63-1.36 3.71-2.04 6.21-2.04 2.44 0 4.51.68 6.22 2.04 1.71 1.35 2.56 3.28 2.56 5.76 0 2.42-.85 4.32-2.56 5.72-1.71 1.39-3.78 2.09-6.22 2.09-2.5 0-4.58-.7-6.21-2.09-1.63-1.4-2.45-3.3-2.45-5.72zm45.95 72.62 7.52-35.06c.46-2.12.69-3.96.69-5.55 0-1.66-.35-2.96-1.03-3.9s-1.94-1.41-3.76-1.41c-1.37 0-2.74.34-4.11 1.02-1.36.67-2.66 1.58-3.87 2.71a29.039 29.039 0 0 0 -3.42 3.79 30.157 30.157 0 0 0 -2.74 4.24l-7.3 34.16h-14.02l12.08-56.55h10.61l-.57 9.95h.45c.99-1.21 2.15-2.49 3.48-3.85 1.33-1.35 2.87-2.6 4.62-3.73s3.7-2.07 5.87-2.83c2.17-.75 4.62-1.13 7.36-1.13 3.42 0 6.15.93 8.2 2.77 2.06 1.85 3.08 4.92 3.08 9.22 0 1.13-.05 2.34-.17 3.62-.11 1.28-.36 2.68-.74 4.19l-8.21 38.34zm71.71 0c-.98 4.45-2.31 8.2-3.99 11.25-1.67 3.06-3.66 5.53-5.98 7.41-2.32 1.89-4.98 3.25-7.98 4.07-3.01.83-6.33 1.25-9.98 1.25-2.66 0-5.04-.19-7.13-.57-2.09-.37-3.93-.83-5.53-1.35-1.59-.53-2.98-1.08-4.16-1.64-1.18-.57-2.11-1.08-2.79-1.53l5.24-10.29c.69.3 1.49.66 2.4 1.07.91.42 1.96.83 3.13 1.25 1.18.41 2.55.75 4.11 1.01 1.56.27 3.36.4 5.41.4 3.81 0 6.83-1.17 9.07-3.51s3.86-5.54 4.84-9.61l2.17-8.82h-.46c-1.74 2.71-4.12 5.14-7.12 7.29s-6.41 3.22-10.21 3.22c-4.1 0-7.43-1.52-9.97-4.58-2.55-3.05-3.82-7.14-3.82-12.27 0-5.8.83-11.25 2.51-16.34 1.67-5.09 4.01-9.54 7.01-13.35s6.55-6.8 10.66-8.99c4.1-2.19 8.63-3.28 13.57-3.28 4.63 0 8.68.39 12.14 1.19 3.46.79 6.25 1.67 8.38 2.65zm-4.1-45.13c-.84-.45-1.9-.75-3.19-.91-1.29-.15-2.59-.22-3.88-.22-2.43 0-4.69.71-6.78 2.15-2.09 1.43-3.9 3.39-5.42 5.88s-2.72 5.41-3.59 8.76c-.87 3.36-1.31 6.96-1.31 10.81 0 2.41.51 4.33 1.54 5.77 1.02 1.43 2.37 2.14 4.05 2.14 1.29 0 2.62-.39 3.99-1.18 1.36-.79 2.68-1.79 3.93-3s2.37-2.55 3.36-4.02 1.79-2.84 2.4-4.12zm79.36 45.13 6.84-32.12c.76-3.32 1.14-6.07 1.14-8.26 0-1.96-.38-3.37-1.14-4.24s-1.94-1.3-3.54-1.3c-1.44 0-2.96.45-4.56 1.35-1.59.91-3.11 2.04-4.56 3.4a36.589 36.589 0 0 0 -3.93 4.35c-1.18 1.55-2.07 2.96-2.68 4.24l-6.73 32.58h-14.02l16.87-79.18h14.03l-7.19 32.58h.46c.99-1.21 2.18-2.49 3.59-3.85 1.41-1.35 2.97-2.6 4.68-3.73s3.57-2.07 5.58-2.83c2.02-.75 4.2-1.13 6.56-1.13 3.65 0 6.48.91 8.49 2.72 2.02 1.81 3.02 5.01 3.02 9.61 0 2.79-.45 6.33-1.36 10.63l-7.53 35.18zm28.84-18.32c0-5.96.86-11.39 2.57-16.29s3.99-9.09 6.84-12.56 6.16-6.16 9.92-8.08c3.76-1.93 7.7-2.89 11.8-2.89 3.65 0 6.73.57 9.24 1.7 2.5 1.13 4.54 2.64 6.1 4.52 1.55 1.89 2.68 4.04 3.36 6.45s1.03 4.9 1.03 7.47c0 5.88-.84 11.25-2.51 16.11-1.68 4.87-3.92 9.03-6.73 12.5s-6.08 6.17-9.81 8.09c-3.72 1.92-7.64 2.88-11.74 2.88-3.57 0-6.61-.58-9.12-1.75s-4.58-2.7-6.22-4.58a18.208 18.208 0 0 1 -3.59-6.39c-.76-2.38-1.14-4.77-1.14-7.18zm14.48-1.93c0 6.79 2.47 10.18 7.41 10.18 1.83 0 3.62-.79 5.36-2.37 1.75-1.59 3.31-3.66 4.68-6.22 1.37-2.57 2.45-5.47 3.25-8.71.8-3.25 1.2-6.49 1.2-9.73 0-3.02-.52-5.33-1.54-6.96-1.03-1.62-2.95-2.43-5.76-2.43-1.83 0-3.61.76-5.36 2.26-1.75 1.51-3.31 3.49-4.68 5.94-1.36 2.45-2.47 5.26-3.3 8.43-.84 3.17-1.26 6.37-1.26 9.61zm70.47 20.25 6.5-30.77c.45-2.11.81-3.97 1.08-5.59.27-1.63.4-3.08.4-4.36 0-3.47-1.33-5.2-3.99-5.2-1.29 0-2.59.34-3.88 1.02-1.29.67-2.49 1.54-3.59 2.6-1.1 1.05-2.13 2.2-3.08 3.45-.95 1.24-1.73 2.43-2.34 3.56l-7.29 35.29h-14.03l12.09-56.55h10.94l-.68 9.95h.46c1.14-1.21 2.37-2.49 3.7-3.85a29.54 29.54 0 0 1 4.5-3.73c1.68-1.13 3.54-2.07 5.59-2.83 2.05-.75 4.3-1.13 6.73-1.13 3.04 0 5.34 1.1 6.9 3.28 1.56 2.19 2.26 5.09 2.11 8.71a46.32 46.32 0 0 1 3.93-4.3c1.48-1.43 3.08-2.71 4.79-3.84s3.53-2.06 5.47-2.77c1.94-.72 3.94-1.08 5.99-1.08 3.49 0 6.17.81 8.04 2.43 1.86 1.62 2.79 4.66 2.79 9.11 0 3.24-.57 7.46-1.71 12.67l-7.18 33.93h-14.03l6.73-31.78c.38-1.74.68-3.36.91-4.87s.34-2.83.34-3.96c0-1.73-.32-3.05-.97-3.96-.64-.9-1.73-1.35-3.25-1.35-1.21 0-2.45.36-3.7 1.07-1.26.72-2.45 1.62-3.59 2.72-1.14 1.09-2.19 2.28-3.14 3.56s-1.69 2.49-2.22 3.62l-7.3 34.95zm101.02-5.43c-2.36 1.96-5.4 3.62-9.12 4.98-3.73 1.35-8.06 2.03-13 2.03-6.16 0-11.01-1.79-14.54-5.37s-5.3-8.58-5.3-14.99c0-6.03.95-11.48 2.85-16.34s4.39-8.99 7.47-12.39c3.08-3.39 6.55-6.01 10.43-7.86 3.88-1.84 7.75-2.77 11.63-2.77 3.12 0 5.8.4 8.04 1.19s4.08 1.88 5.53 3.28c1.44 1.39 2.51 3 3.19 4.81s1.03 3.73 1.03 5.77c0 3.09-.8 5.8-2.4 8.14-1.59 2.34-3.82 4.28-6.67 5.82-2.85 1.55-6.29 2.72-10.32 3.51s-8.43 1.19-13.22 1.19c-.61 0-1.18-.02-1.71-.06-.54-.04-1.11-.05-1.71-.05-.16.9-.27 1.71-.35 2.43-.07.71-.11 1.37-.11 1.98 0 3.39.89 5.92 2.68 7.57 1.79 1.66 4.31 2.49 7.58 2.49 3.35 0 6.35-.49 9.01-1.47s4.67-1.96 6.04-2.94zm-25.77-27.94c2.13 0 4.39-.07 6.78-.22 2.4-.15 4.62-.51 6.67-1.08 2.06-.56 3.77-1.39 5.13-2.49 1.37-1.09 2.06-2.58 2.06-4.46 0-1.14-.42-2.29-1.26-3.45-.83-1.17-2.58-1.76-5.24-1.76-3.35 0-6.26 1.28-8.73 3.85-2.47 2.56-4.27 5.77-5.41 9.61zm112.53 10.75a76.52 76.52 0 0 0 -1.31 8.71c-.26 2.94-.4 5.73-.4 8.37 0 1.05.02 2.05.06 2.99.04.95.1 1.83.17 2.66h-10.37l-1.6-9.72h-.46c-.83 1.35-1.91 2.69-3.24 4.01-1.34 1.32-2.8 2.53-4.39 3.62-1.6 1.09-3.29 1.96-5.08 2.6-1.78.64-3.63.96-5.53.96-5.01 0-8.72-1.62-11.11-4.86-2.4-3.24-3.6-7.58-3.6-13.01 0-5.5.71-10.78 2.11-15.83 1.41-5.06 3.59-9.5 6.56-13.35 2.96-3.85 6.71-6.92 11.23-9.22s9.9-3.45 16.13-3.45c2.66 0 5.57.25 8.73.74 3.15.49 6.21 1.15 9.17 1.98zm-26.79 12.55c1.37 0 2.66-.28 3.88-.85 1.21-.56 2.33-1.3 3.36-2.2 1.03-.91 1.94-1.89 2.74-2.94.8-1.06 1.5-2.04 2.11-2.94l5.7-26.36c-.84-.37-1.81-.66-2.91-.85-1.1-.18-2.19-.28-3.25-.28-2.74 0-5.17.81-7.3 2.43-2.13 1.63-3.93 3.74-5.41 6.34s-2.61 5.54-3.37 8.82-1.14 6.58-1.14 9.9c0 2.41.4 4.5 1.2 6.28.8 1.77 2.26 2.65 4.39 2.65zm81.07-69.11h14.02l-7.07 32.58h.46c.99-1.36 2.13-2.7 3.42-4.02s2.72-2.52 4.28-3.62c1.55-1.09 3.24-1.98 5.07-2.65 1.82-.68 3.84-1.02 6.04-1.02 4.11 0 7.18 1.43 9.24 4.3 2.05 2.86 3.08 6.67 3.08 11.42 0 7.16-1.01 13.46-3.03 18.89-2.01 5.43-4.65 9.97-7.92 13.63s-6.95 6.41-11.06 8.26c-4.1 1.84-8.25 2.77-12.43 2.77-4.63 0-8.72-.44-12.25-1.3-3.54-.87-6.22-1.95-8.04-3.23zm-.46 67.3c.84.61 1.86 1.02 3.08 1.25 1.22.22 2.55.34 3.99.34 1.9 0 3.88-.63 5.93-1.87s3.93-3.07 5.64-5.49c1.71-2.41 3.12-5.37 4.22-8.87 1.1-3.51 1.66-7.49 1.66-11.94 0-5.2-1.52-7.8-4.57-7.8-1.52 0-3.02.41-4.5 1.24s-2.91 1.87-4.27 3.11c-1.37 1.25-2.61 2.59-3.71 4.02s-2 2.79-2.68 4.07zm85.97 6.45c-2.36 1.96-5.4 3.62-9.12 4.98-3.72 1.35-8.06 2.03-13 2.03-6.16 0-11-1.79-14.54-5.37-3.53-3.58-5.3-8.58-5.3-14.99 0-6.03.95-11.48 2.85-16.34s4.39-8.99 7.47-12.39c3.08-3.39 6.56-6.01 10.43-7.86 3.88-1.84 7.76-2.77 11.63-2.77 3.12 0 5.8.4 8.04 1.19s4.09 1.88 5.53 3.28c1.45 1.39 2.51 3 3.19 4.81.69 1.81 1.03 3.73 1.03 5.77 0 3.09-.8 5.8-2.39 8.14-1.6 2.34-3.82 4.28-6.67 5.82-2.85 1.55-6.29 2.72-10.32 3.51s-8.44 1.19-13.23 1.19c-.61 0-1.18-.02-1.71-.06s-1.1-.05-1.71-.05c-.15.9-.27 1.71-.34 2.43-.08.71-.12 1.37-.12 1.98 0 3.39.9 5.92 2.68 7.57 1.79 1.66 4.32 2.49 7.59 2.49 3.34 0 6.34-.49 9-1.47s4.68-1.96 6.05-2.94zm-25.77-27.94c2.13 0 4.39-.07 6.79-.22 2.39-.15 4.61-.51 6.67-1.08 2.05-.56 3.76-1.39 5.13-2.49 1.37-1.09 2.05-2.58 2.05-4.46 0-1.14-.42-2.29-1.25-3.45-.84-1.17-2.59-1.76-5.25-1.76-3.34 0-6.25 1.28-8.72 3.85-2.47 2.56-4.28 5.77-5.42 9.61zm41.51-23.18h7.41l2.28-10.64 14.93-4.18-3.19 14.82h13.34l-2.62 11.65h-13.23l-5.58 25.56c-.46 2.03-.69 3.69-.69 4.98 0 1.65.38 2.79 1.14 3.39s1.9.9 3.42.9c1.45 0 2.76-.15 3.94-.45 1.17-.3 2.41-.79 3.7-1.47v10.41c-.83.45-1.84.88-3.02 1.3-1.18.41-2.45.75-3.82 1.02-1.37.26-2.77.47-4.22.62-1.44.15-2.77.22-3.99.22-3.88 0-6.86-.88-8.95-2.65-2.09-1.78-3.13-4.47-3.13-8.09 0-.76.05-1.55.17-2.38.11-.83.24-1.69.4-2.6l6.61-30.76h-7.64zm36.48 0h7.41l2.28-10.64 14.94-4.18-3.19 14.82h13.34l-2.63 11.65h-13.22l-5.59 25.56c-.45 2.03-.68 3.69-.68 4.98 0 1.65.38 2.79 1.14 3.39s1.9.9 3.42.9c1.44 0 2.75-.15 3.93-.45s2.42-.79 3.71-1.47v10.41c-.84.45-1.85.88-3.02 1.3-1.18.41-2.46.75-3.82 1.02-1.37.26-2.78.47-4.22.62-1.45.15-2.78.22-3.99.22-3.88 0-6.86-.88-8.95-2.65-2.09-1.78-3.14-4.47-3.14-8.09 0-.76.06-1.55.17-2.38.12-.83.25-1.69.4-2.6l6.61-30.76h-7.63zm75.03 51.12c-2.36 1.96-5.4 3.62-9.13 4.98-3.72 1.35-8.05 2.03-12.99 2.03-6.16 0-11.01-1.79-14.54-5.37-3.54-3.58-5.3-8.58-5.3-14.99 0-6.03.95-11.48 2.85-16.34s4.39-8.99 7.47-12.39c3.07-3.39 6.55-6.01 10.43-7.86 3.87-1.84 7.75-2.77 11.63-2.77 3.11 0 5.79.4 8.04 1.19 2.24.79 4.08 1.88 5.53 3.28 1.44 1.39 2.5 3 3.19 4.81.68 1.81 1.02 3.73 1.02 5.77 0 3.09-.79 5.8-2.39 8.14s-3.82 4.28-6.67 5.82c-2.85 1.55-6.29 2.72-10.32 3.51s-8.44 1.19-13.22 1.19c-.61 0-1.18-.02-1.71-.06-.54-.04-1.11-.05-1.71-.05-.16.9-.27 1.71-.35 2.43-.07.71-.11 1.37-.11 1.98 0 3.39.89 5.92 2.68 7.57 1.78 1.66 4.31 2.49 7.58 2.49 3.35 0 6.35-.49 9.01-1.47s4.67-1.96 6.04-2.94zm-25.77-27.94c2.13 0 4.39-.07 6.78-.22 2.4-.15 4.62-.51 6.67-1.08 2.05-.56 3.76-1.39 5.13-2.49 1.37-1.09 2.06-2.58 2.06-4.46 0-1.14-.42-2.29-1.26-3.45-.84-1.17-2.58-1.76-5.24-1.76-3.35 0-6.26 1.28-8.73 3.85-2.47 2.56-4.27 5.77-5.41 9.61zm57.58-23.18.11 9.95h.46c1.67-3.02 3.7-5.58 6.1-7.69 2.39-2.11 5.41-3.17 9.06-3.17 1.6 0 3.5.3 5.7.91l-3.53 12.1c-.76-.23-1.48-.42-2.17-.57-.68-.15-1.41-.22-2.16-.22-3.12 0-5.99 1-8.61 2.99-2.63 2-4.62 4.32-5.99 6.96l-7.41 35.29h-14.02l12.08-56.55zm50.73 0h7.42l2.28-10.64 14.93-4.18-3.19 14.82h13.34l-2.62 11.65h-13.23l-5.58 25.56c-.46 2.03-.69 3.69-.69 4.98 0 1.65.38 2.79 1.14 3.39s1.9.9 3.42.9c1.45 0 2.76-.15 3.94-.45 1.17-.3 2.41-.79 3.7-1.47v10.41c-.84.45-1.84.88-3.02 1.3-1.18.41-2.45.75-3.82 1.02-1.37.26-2.77.47-4.22.62-1.44.15-2.77.22-3.99.22-3.88 0-6.86-.88-8.95-2.65-2.09-1.78-3.14-4.47-3.14-8.09 0-.76.06-1.55.18-2.38.11-.83.24-1.69.39-2.6l6.62-30.76h-7.64zm33.07 38.23c0-5.96.86-11.39 2.57-16.29s3.99-9.09 6.84-12.56 6.15-6.16 9.92-8.08c3.76-1.93 7.69-2.89 11.8-2.89 3.65 0 6.72.57 9.23 1.7s4.54 2.64 6.1 4.52c1.56 1.89 2.68 4.04 3.37 6.45.68 2.41 1.02 4.9 1.02 7.47 0 5.88-.83 11.25-2.51 16.11-1.67 4.87-3.91 9.03-6.72 12.5-2.82 3.47-6.08 6.17-9.81 8.09-3.72 1.92-7.64 2.88-11.74 2.88-3.58 0-6.62-.58-9.12-1.75-2.51-1.17-4.58-2.7-6.22-4.58a18.208 18.208 0 0 1 -3.59-6.39c-.76-2.38-1.14-4.77-1.14-7.18zm14.48-1.93c0 6.79 2.47 10.18 7.41 10.18 1.83 0 3.61-.79 5.36-2.37 1.75-1.59 3.31-3.66 4.68-6.22 1.36-2.57 2.45-5.47 3.24-8.71.8-3.25 1.2-6.49 1.2-9.73 0-3.02-.51-5.33-1.54-6.96-1.02-1.62-2.94-2.43-5.76-2.43-1.82 0-3.61.76-5.35 2.26-1.75 1.51-3.31 3.49-4.68 5.94s-2.47 5.26-3.31 8.43c-.83 3.17-1.25 6.37-1.25 9.61zm70.46 20.25 6.5-30.77c.46-2.11.82-3.97 1.09-5.59.26-1.63.4-3.08.4-4.36 0-3.47-1.34-5.2-4-5.2-1.29 0-2.58.34-3.87 1.02-1.29.67-2.49 1.54-3.59 2.6-1.11 1.05-2.13 2.2-3.08 3.45-.95 1.24-1.73 2.43-2.34 3.56l-7.3 35.29h-14.02l12.08-56.55h10.95l-.68 9.95h.45c1.14-1.21 2.38-2.49 3.71-3.85 1.33-1.35 2.83-2.6 4.5-3.73s3.54-2.07 5.59-2.83c2.05-.75 4.29-1.13 6.73-1.13 3.04 0 5.34 1.1 6.89 3.28 1.56 2.19 2.27 5.09 2.11 8.71a45.12 45.12 0 0 1 3.94-4.3c1.48-1.43 3.08-2.71 4.79-3.84s3.53-2.06 5.47-2.77c1.94-.72 3.93-1.08 5.98-1.08 3.5 0 6.18.81 8.04 2.43 1.87 1.62 2.8 4.66 2.8 9.11 0 3.24-.57 7.46-1.71 12.67l-7.19 33.93h-14.02l6.73-31.78c.38-1.74.68-3.36.91-4.87s.34-2.83.34-3.96c0-1.73-.32-3.05-.97-3.96-.65-.9-1.73-1.35-3.25-1.35-1.22 0-2.45.36-3.7 1.07-1.26.72-2.46 1.62-3.6 2.72-1.14 1.09-2.18 2.28-3.13 3.56s-1.69 2.49-2.22 3.62l-7.3 34.95zm59.07-18.32c0-5.96.85-11.39 2.56-16.29s3.99-9.09 6.84-12.56 6.16-6.16 9.92-8.08c3.76-1.93 7.7-2.89 11.8-2.89 3.65 0 6.73.57 9.24 1.7s4.54 2.64 6.1 4.52c1.56 1.89 2.68 4.04 3.36 6.45.69 2.41 1.03 4.9 1.03 7.47 0 5.88-.84 11.25-2.51 16.11-1.67 4.87-3.92 9.03-6.73 12.5s-6.08 6.17-9.8 8.09c-3.73 1.92-7.64 2.88-11.75 2.88-3.57 0-6.61-.58-9.12-1.75s-4.58-2.7-6.21-4.58a18.053 18.053 0 0 1 -3.59-6.39c-.76-2.38-1.14-4.77-1.14-7.18zm14.48-1.93c0 6.79 2.47 10.18 7.41 10.18 1.82 0 3.61-.79 5.36-2.37 1.74-1.59 3.3-3.66 4.67-6.22 1.37-2.57 2.45-5.47 3.25-8.71.8-3.25 1.2-6.49 1.2-9.73 0-3.02-.52-5.33-1.54-6.96-1.03-1.62-2.95-2.43-5.76-2.43-1.82 0-3.61.76-5.36 2.26-1.75 1.51-3.31 3.49-4.67 5.94-1.37 2.45-2.47 5.26-3.31 8.43s-1.25 6.37-1.25 9.61zm62.71-36.3.11 9.95h.46c1.67-3.02 3.7-5.58 6.1-7.69 2.39-2.11 5.41-3.17 9.06-3.17 1.6 0 3.5.3 5.7.91l-3.53 12.1c-.76-.23-1.49-.42-2.17-.57s-1.41-.22-2.17-.22c-3.11 0-5.98 1-8.6 2.99-2.63 2-4.62 4.32-5.99 6.96l-7.41 35.29h-14.03l12.09-56.55zm39.1 0 .12 9.95h.45c1.68-3.02 3.71-5.58 6.1-7.69 2.4-2.11 5.42-3.17 9.07-3.17 1.59 0 3.5.3 5.7.91l-3.54 12.1c-.76-.23-1.48-.42-2.16-.57-.69-.15-1.41-.22-2.17-.22-3.11 0-5.98 1-8.61 2.99-2.62 2-4.61 4.32-5.98 6.96l-7.41 35.29h-14.03l12.09-56.55zm18.47 38.23c0-5.96.86-11.39 2.57-16.29s3.99-9.09 6.84-12.56 6.16-6.16 9.92-8.08c3.76-1.93 7.7-2.89 11.8-2.89 3.65 0 6.73.57 9.24 1.7s4.54 2.64 6.1 4.52c1.56 1.89 2.68 4.04 3.36 6.45s1.03 4.9 1.03 7.47c0 5.88-.84 11.25-2.51 16.11-1.67 4.87-3.92 9.03-6.73 12.5s-6.08 6.17-9.8 8.09c-3.73 1.92-7.64 2.88-11.75 2.88-3.57 0-6.61-.58-9.12-1.75s-4.58-2.7-6.21-4.58a18.053 18.053 0 0 1 -3.59-6.39c-.76-2.38-1.15-4.77-1.15-7.18zm14.49-1.93c0 6.79 2.47 10.18 7.41 10.18 1.82 0 3.61-.79 5.36-2.37 1.74-1.59 3.3-3.66 4.67-6.22 1.37-2.57 2.45-5.47 3.25-8.71.8-3.25 1.2-6.49 1.2-9.73 0-3.02-.52-5.33-1.54-6.96-1.03-1.62-2.95-2.43-5.76-2.43-1.82 0-3.61.76-5.36 2.26-1.75 1.51-3.31 3.49-4.67 5.94-1.37 2.45-2.47 5.26-3.31 8.43s-1.25 6.37-1.25 9.61zm88.25-36.3 3.64 28.95-.11 9.39h.57l3.42-9.5 13.23-28.84h13.68l-29.08 57.12h-10.37l-3.99-31.68v-7.12h-.46l-2.96 7.24-17.11 31.56h-10.71l-5.25-57.12h14.37l1.82 28.39-.68 10.06h.57l3.88-10.18 15.05-28.27z" fill="#fefefe" fill-rule="nonzero"/></svg>